<svg width="20" height="20" viewBox="0 0 20 20" fill="none" xmlns="http://www.w3.org/2000/svg">
<path d="M11.25 16.875V3.125C11.25 2.95921 11.1841 2.80029 11.0669 2.68303C10.9497 2.56584 10.7908 2.5 10.625 2.5H3.125C2.95924 2.5 2.80026 2.56584 2.68306 2.68303C2.56585 2.80029 2.5 2.95921 2.5 3.125V16.875" fill="white" fill-opacity="0.1"/>
<path d="M1.25 17.5H18.75C19.0952 17.5 19.375 17.2202 19.375 16.875C19.375 16.5298 19.0952 16.25 18.75 16.25H1.25C0.904822 16.25 0.625 16.5298 0.625 16.875C0.625 17.2202 0.904822 17.5 1.25 17.5Z" fill="white"/>
<path d="M1.875 3.125V16.875C1.875 17.2202 2.15482 17.5 2.5 17.5C2.84518 17.5 3.125 17.2202 3.125 16.875V3.125H10.625V16.875C10.625 17.2202 10.9048 17.5 11.25 17.5C11.5952 17.5 11.875 17.2202 11.875 16.875V3.125C11.875 2.60723 11.5089 2.24112 11.5089 2.24112C11.1428 1.875 10.625 1.875 10.625 1.875H3.125C2.60723 1.875 2.24112 2.24112 2.24112 2.24112C1.875 2.60723 1.875 3.125 1.875 3.125Z" fill="white"/>
<path d="M16.875 6.875H11.25C10.9048 6.875 10.625 7.15482 10.625 7.5C10.625 7.84518 10.9048 8.125 11.25 8.125H16.875V16.875C16.875 17.2202 17.1548 17.5 17.5 17.5C17.8452 17.5 18.125 17.2202 18.125 16.875V8.125C18.125 7.60723 17.7589 7.24112 17.7589 7.24112C17.3928 6.875 16.875 6.875 16.875 6.875Z" fill="white"/>
<path d="M5 6.25H7.5C7.84518 6.25 8.125 5.97018 8.125 5.625C8.125 5.27982 7.84518 5 7.5 5H5C4.65482 5 4.375 5.27982 4.375 5.625C4.375 5.97018 4.65482 6.25 5 6.25Z" fill="white"/>
<path d="M6.25 11.25H8.75C9.09518 11.25 9.375 10.9702 9.375 10.625C9.375 10.2798 9.09518 10 8.75 10H6.25C5.90482 10 5.625 10.2798 5.625 10.625C5.625 10.9702 5.90482 11.25 6.25 11.25Z" fill="#1C1C1C"/>
<path d="M5 14.375H7.5C7.84518 14.375 8.125 14.0952 8.125 13.75C8.125 13.4048 7.84518 13.125 7.5 13.125H5C4.65482 13.125 4.375 13.4048 4.375 13.75C4.375 14.0952 4.65482 14.375 5 14.375Z" fill="#1C1C1C"/>
<path d="M13.125 13.75C13.125 14.0952 13.4048 14.375 13.75 14.375H15C15.3452 14.375 15.625 14.0952 15.625 13.75C15.625 13.4048 15.3452 13.125 15 13.125H13.75C13.4048 13.125 13.125 13.4048 13.125 13.75Z" fill="#1C1C1C"/>
<path d="M13.125 10.625C13.125 10.9702 13.4048 11.25 13.75 11.25H15C15.3452 11.25 15.625 10.9702 15.625 10.625C15.625 10.2798 15.3452 10 15 10H13.75C13.4048 10 13.125 10.2798 13.125 10.625Z" fill="#1C1C1C"/>
</svg>
