<svg width="20" height="20" viewBox="0 0 20 20" fill="none" xmlns="http://www.w3.org/2000/svg">
<path d="M10 14.375C10 16.1009 8.60092 17.5 6.875 17.5C5.14908 17.5 3.75 16.1009 3.75 14.375C3.75 12.6491 5.14908 11.25 6.875 11.25C8.60092 11.25 10 12.6491 10 14.375Z" fill="white" fill-opacity="0.1"/>
<path fill-rule="evenodd" clip-rule="evenodd" d="M6.875 10.625C6.875 10.625 8.4283 10.625 9.52665 11.7233C9.52665 11.7233 10.625 12.8217 10.625 14.375C10.625 14.375 10.625 15.9283 9.52665 17.0267C9.52665 17.0267 8.4283 18.125 6.875 18.125C6.875 18.125 5.3217 18.125 4.22335 17.0267C4.22335 17.0267 3.125 15.9283 3.125 14.375C3.125 14.375 3.125 12.8217 4.22335 11.7233C4.22335 11.7233 5.3217 10.625 6.875 10.625ZM6.875 11.875C6.875 11.875 5.83947 11.875 5.10723 12.6072C5.10723 12.6072 4.375 13.3395 4.375 14.375C4.375 14.375 4.375 15.4105 5.10723 16.1428C5.10723 16.1428 5.83947 16.875 6.875 16.875C6.875 16.875 7.91053 16.875 8.64277 16.1428C8.64277 16.1428 9.375 15.4105 9.375 14.375C9.375 14.375 9.375 13.3395 8.64277 12.6072C8.64277 12.6072 7.91053 11.875 6.875 11.875Z" fill="white"/>
<path fill-rule="evenodd" clip-rule="evenodd" d="M9.375 3.12501V6.87484V6.87519V14.375C9.375 14.7202 9.65482 15 10 15C10.3452 15 10.625 14.7202 10.625 14.375V7.71503L16.0704 9.34865C16.401 9.44784 16.7495 9.26022 16.8486 8.9296C16.8661 8.87134 16.875 8.81084 16.875 8.75001V5.00001C16.875 4.72401 16.694 4.48068 16.4296 4.40137L10.1796 2.52637C9.84897 2.42718 9.50054 2.6148 9.40136 2.94542C9.38388 3.00368 9.375 3.06418 9.375 3.12501ZM15.625 7.90999L10.625 6.40999V3.96503L15.625 5.46503V7.90999Z" fill="white"/>
</svg>
