<svg width="20" height="20" viewBox="0 0 20 20" fill="none" xmlns="http://www.w3.org/2000/svg">
<path fill-rule="evenodd" clip-rule="evenodd" d="M5.83319 3.76396C7.06656 2.93987 8.5166 2.5 9.99999 2.5C11.9891 2.5 13.8968 3.29018 15.3033 4.69669C16.7098 6.10321 17.5 8.01086 17.5 10C17.5 11.4833 17.0602 12.9334 16.236 14.1668C15.4119 15.4002 14.2406 16.3614 12.8701 16.9291C11.4997 17.4968 9.99167 17.6453 8.53682 17.3559C7.08197 17.0665 5.74561 16.3522 4.69672 15.3033C3.64783 14.2544 2.93349 12.9181 2.64411 11.4632C2.35472 10.0083 2.50327 8.50033 3.07089 7.12986C3.63852 5.75943 4.59982 4.58809 5.83319 3.76396ZM7.56934 13.6377C8.28887 14.1184 9.13466 14.375 9.99999 14.375C11.1603 14.375 12.2731 13.9141 13.0936 13.0936C13.914 12.2731 14.375 11.1603 14.375 10C14.375 9.13471 14.1184 8.28884 13.6377 7.56939C13.157 6.8499 12.4737 6.28918 11.6743 5.95802C10.8748 5.62691 9.9951 5.54024 9.14649 5.70908C8.29779 5.87788 7.51822 6.29456 6.90642 6.90639C6.29454 7.51827 5.8779 8.29781 5.70906 9.14646C5.54022 9.99516 5.62689 10.8748 5.95801 11.6742C6.28912 12.4737 6.84989 13.157 7.56934 13.6377Z" fill="white" fill-opacity="0.1"/>
<path fill-rule="evenodd" clip-rule="evenodd" d="M10 1.875C10 1.875 11.6526 1.875 13.1628 2.51376C13.1628 2.51376 14.621 3.13053 15.7452 4.25476C15.7452 4.25476 16.8695 5.37899 17.4862 6.83719C17.4862 6.83719 18.125 8.34739 18.125 10C18.125 10 18.125 11.6526 17.4862 13.1628C17.4862 13.1628 16.8695 14.621 15.7452 15.7452C15.7452 15.7452 14.621 16.8695 13.1628 17.4862C13.1628 17.4862 11.6526 18.125 10 18.125C10 18.125 8.34739 18.125 6.83719 17.4862C6.83719 17.4862 5.37899 16.8695 4.25476 15.7452C4.25476 15.7452 3.13053 14.621 2.51376 13.1628C2.51376 13.1628 1.875 11.6526 1.875 10C1.875 10 1.875 8.34739 2.51376 6.83719C2.51376 6.83719 3.13053 5.37899 4.25476 4.25476C4.25476 4.25476 5.37899 3.13053 6.83719 2.51376C6.83719 2.51376 8.34739 1.875 10 1.875ZM10 3.125C10 3.125 8.60087 3.125 7.32413 3.66501C7.32413 3.66501 6.09047 4.18681 5.13864 5.13864C5.13864 5.13864 4.18681 6.09047 3.66502 7.32413C3.66502 7.32413 3.125 8.60087 3.125 10C3.125 10 3.125 11.3991 3.66502 12.6759C3.66502 12.6759 4.18681 13.9095 5.13864 14.8614C5.13864 14.8614 6.09047 15.8132 7.32413 16.335C7.32413 16.335 8.60087 16.875 10 16.875C10 16.875 11.3991 16.875 12.6759 16.335C12.6759 16.335 13.9095 15.8132 14.8614 14.8614C14.8614 14.8614 15.8132 13.9095 16.335 12.6759C16.335 12.6759 16.875 11.3991 16.875 10C16.875 10 16.875 8.60087 16.335 7.32413C16.335 7.32413 15.8132 6.09047 14.8614 5.13864C14.8614 5.13864 13.9095 4.18681 12.6759 3.66501C12.6759 3.66501 11.3991 3.125 10 3.125Z" fill="white"/>
<path fill-rule="evenodd" clip-rule="evenodd" d="M10 5C10 5 12.0711 5 13.5355 6.46447C13.5355 6.46447 15 7.92893 15 10C15 10 15 12.0711 13.5355 13.5355C13.5355 13.5355 12.0711 15 10 15C10 15 7.92893 15 6.46447 13.5355C6.46447 13.5355 5 12.0711 5 10C5 10 5 7.92893 6.46447 6.46447C6.46447 6.46447 7.92893 5 10 5ZM10 6.25C10 6.25 8.4467 6.25 7.34835 7.34835C7.34835 7.34835 6.25 8.4467 6.25 10C6.25 10 6.25 11.5533 7.34835 12.6517C7.34835 12.6517 8.4467 13.75 10 13.75C10 13.75 11.5533 13.75 12.6516 12.6517C12.6516 12.6517 13.75 11.5533 13.75 10C13.75 10 13.75 8.4467 12.6516 7.34835C12.6516 7.34835 11.5533 6.25 10 6.25Z" fill="white"/>
<path d="M10.625 5.625V2.5C10.625 2.15482 10.3452 1.875 10 1.875C9.65482 1.875 9.375 2.15482 9.375 2.5V5.625C9.375 5.97018 9.65482 6.25 10 6.25C10.3452 6.25 10.625 5.97018 10.625 5.625Z" fill="white"/>
<path d="M5.13725 4.25337C5.02004 4.13616 4.86107 4.07031 4.69531 4.07031C4.52955 4.07031 4.37058 4.13616 4.25337 4.25337C4.13616 4.37058 4.07031 4.52955 4.07031 4.69531C4.07031 4.86107 4.13616 5.02004 4.25337 5.13725L6.46431 7.34819C6.58152 7.4654 6.74049 7.53125 6.90625 7.53125C6.91704 7.53125 6.92782 7.53097 6.93859 7.53041C7.09296 7.52241 7.23889 7.45749 7.34819 7.34819C7.4654 7.23098 7.53125 7.07201 7.53125 6.90625C7.53125 6.74049 7.4654 6.58152 7.34819 6.46431L5.13725 4.25337Z" fill="#1C1C1C"/>
<path d="M5.625 9.375H2.5C2.15482 9.375 1.875 9.65482 1.875 10C1.875 10.3452 2.15482 10.625 2.5 10.625H5.625C5.97018 10.625 6.25 10.3452 6.25 10C6.25 9.65482 5.97018 9.375 5.625 9.375Z" fill="#1C1C1C"/>
<path d="M6.46423 12.6519L4.25337 14.8627C4.13616 14.98 4.07031 15.1389 4.07031 15.3047C4.07031 15.3155 4.07059 15.3263 4.07115 15.337C4.07915 15.4914 4.14407 15.6373 4.25337 15.7466C4.37058 15.8638 4.52955 15.9297 4.69531 15.9297C4.86107 15.9297 5.02004 15.8638 5.13725 15.7466L7.34812 13.5358C7.4654 13.4185 7.53125 13.2595 7.53125 13.0938C7.53125 12.928 7.4654 12.769 7.34819 12.6518C7.23098 12.5346 7.07201 12.4688 6.90625 12.4688C6.89547 12.4688 6.88468 12.469 6.87391 12.4696C6.71954 12.4776 6.57361 12.5425 6.46423 12.6519Z" fill="#1C1C1C"/>
<path d="M9.375 14.375V17.5C9.375 17.8452 9.65482 18.125 10 18.125C10.3452 18.125 10.625 17.8452 10.625 17.5V14.375C10.625 14.0298 10.3452 13.75 10 13.75C9.65482 13.75 9.375 14.0298 9.375 14.375Z" fill="#1C1C1C"/>
<path d="M14.8625 15.7464L14.8627 15.7466C14.98 15.8638 15.1389 15.9297 15.3047 15.9297C15.3155 15.9297 15.3263 15.9294 15.337 15.9289C15.4914 15.9209 15.6373 15.8559 15.7466 15.7466C15.8638 15.6294 15.9297 15.4704 15.9297 15.3047C15.9297 15.1389 15.8638 14.98 15.7466 14.8627L13.5357 12.6518C13.4185 12.5346 13.2595 12.4688 13.0938 12.4688C12.928 12.4688 12.769 12.5346 12.6518 12.6518C12.5346 12.769 12.4688 12.928 12.4688 13.0938C12.4688 13.2595 12.5346 13.4185 12.6518 13.5357L14.8625 15.7464Z" fill="#1C1C1C"/>
<path d="M14.375 10.625H17.5C17.8452 10.625 18.125 10.3452 18.125 10C18.125 9.65482 17.8452 9.375 17.5 9.375H14.375C14.0298 9.375 13.75 9.65482 13.75 10C13.75 10.3452 14.0298 10.625 14.375 10.625Z" fill="#1C1C1C"/>
<path d="M13.5358 7.34812L15.7466 5.13725C15.8638 5.02004 15.9297 4.86107 15.9297 4.69531C15.9297 4.52955 15.8638 4.37058 15.7466 4.25337C15.6294 4.13616 15.4704 4.07031 15.3047 4.07031C15.1389 4.07031 14.98 4.13616 14.8627 4.25337L12.6519 6.46423C12.5346 6.58152 12.4688 6.74049 12.4688 6.90625C12.4688 7.07201 12.5346 7.23098 12.6518 7.34819C12.769 7.4654 12.928 7.53125 13.0938 7.53125C13.2595 7.53125 13.4185 7.4654 13.5358 7.34812Z" fill="#1C1C1C"/>
</svg>
