<svg width="24" height="24" viewBox="0 0 24 24" fill="none" xmlns="http://www.w3.org/2000/svg">
<rect width="24" height="24" rx="8" fill="#E5ECF6"/>
<path fill-rule="evenodd" clip-rule="evenodd" d="M12.0001 9.5C12.0001 9.5 13.0356 9.5 13.7678 10.2322C13.7678 10.2322 14.5001 10.9645 14.5001 12C14.5001 12 14.5001 13.0355 13.7678 13.7678C13.7678 13.7678 13.0356 14.5 12.0001 14.5C12.0001 14.5 10.9645 14.5 10.2323 13.7678C10.2323 13.7678 9.50006 13.0355 9.50006 12C9.50006 12 9.50006 10.9645 10.2323 10.2322C10.2323 10.2322 10.9645 9.5 12.0001 9.5ZM12.0001 10.5C12.0001 10.5 11.3787 10.5 10.9394 10.9393C10.9394 10.9393 10.5001 11.3787 10.5001 12C10.5001 12 10.5001 12.6213 10.9394 13.0607C10.9394 13.0607 11.3787 13.5 12.0001 13.5C12.0001 13.5 12.6214 13.5 13.0607 13.0607C13.0607 13.0607 13.5001 12.6213 13.5001 12C13.5001 12 13.5001 11.3787 13.0607 10.9393C13.0607 10.9393 12.6214 10.5 12.0001 10.5Z" fill="#1C1C1C"/>
<path d="M9.17217 9.17247C9.26593 9.07871 9.31881 8.95133 9.31881 8.81873C9.31881 8.68621 9.2662 8.55912 9.17256 8.46537C9.07879 8.3716 8.95142 8.31873 8.81881 8.31873C8.68629 8.31873 8.5592 8.37133 8.46545 8.46498C7.77418 9.15549 7.39541 10.0561 7.39541 10.0561C6.99994 10.9869 6.99994 12 6.99994 12C6.99994 13.0131 7.39613 13.9455 7.39613 13.9455C7.77418 14.8445 8.46545 15.535 8.46545 15.535C8.5592 15.6286 8.6863 15.6812 8.81881 15.6812C8.95142 15.6812 9.07884 15.6284 9.17256 15.5346C9.2662 15.4408 9.31881 15.3137 9.31881 15.1812C9.31873 15.0486 9.26599 14.9212 9.17217 14.8275C8.61984 14.2758 8.31649 13.5544 8.31649 13.5544C7.99994 12.8094 7.99994 12 7.99994 12C7.99994 11.1905 8.31721 10.4438 8.31721 10.4438C8.61985 9.72419 9.17217 9.17247 9.17217 9.17247Z" fill="#1C1C1C"/>
<path d="M15.5349 8.46517C16.226 9.15561 16.604 10.0544 16.604 10.0544C17.0002 10.9869 17.0002 12 17.0002 12C17.0002 13.0131 16.6047 13.9438 16.6047 13.9438C16.2259 14.8445 15.5347 15.535 15.5347 15.535C15.4472 15.6224 15.3304 15.6742 15.2069 15.6806C15.1984 15.681 15.1898 15.6812 15.1813 15.6812C15.0486 15.6812 14.9213 15.6285 14.8276 15.5346C14.7397 15.4466 14.6878 15.3291 14.6819 15.205C14.6815 15.1971 14.6813 15.1891 14.6813 15.1812C14.6814 15.0486 14.7341 14.9212 14.8279 14.8275C15.3803 14.2758 15.6829 13.5561 15.6829 13.5561C16.0002 12.8094 16.0002 12 16.0002 12C16.0002 11.1905 15.6836 10.4455 15.6836 10.4455C15.3803 9.72419 14.8279 9.17247 14.8279 9.17247C14.7341 9.07869 14.6813 8.95143 14.6813 8.81873C14.6813 8.68724 14.7331 8.56104 14.8255 8.46747L14.8276 8.46537C14.9104 8.38246 15.0197 8.33128 15.1364 8.32075C15.1512 8.31941 15.1661 8.31873 15.181 8.31873C15.3114 8.31873 15.4369 8.36964 15.5303 8.46063L15.5349 8.46517Z" fill="#1C1C1C"/>
<path d="M7.4036 7.4036L7.40588 7.40131C7.49825 7.30773 7.55005 7.18154 7.55005 7.05005C7.55005 6.91728 7.49724 6.78997 7.40328 6.69617L7.399 6.69195C7.30563 6.60097 7.18042 6.55005 7.05005 6.55005C7.0352 6.55006 7.01991 6.55074 7.00512 6.55207C6.88835 6.56261 6.779 6.61384 6.69617 6.69682C5.66247 7.73252 5.08988 9.07948 5.08988 9.07948C4.5 10.4811 4.5 12 4.5 12C4.5 13.519 5.0892 14.919 5.0892 14.919C5.66229 16.2675 6.69617 17.3033 6.69617 17.3033C6.78985 17.3971 6.91698 17.4499 7.04959 17.45C7.05744 17.45 7.06576 17.4499 7.07361 17.4495C7.19777 17.4436 7.3153 17.3917 7.40328 17.3039C7.49724 17.2101 7.55005 17.0828 7.55005 16.9501C7.55005 16.9416 7.54983 16.9331 7.5494 16.9246C7.54312 16.8011 7.49129 16.6843 7.40393 16.5968C6.50687 15.6981 6.0109 14.5311 6.0109 14.5311C5.5 13.3171 5.5 12 5.5 12C5.5 10.683 6.01022 9.47062 6.01022 9.47062C6.50678 8.30219 7.4036 7.4036 7.4036 7.4036Z" fill="#1C1C1C"/>
<path d="M17.3043 6.69713L17.3036 6.6965C17.21 6.60284 17.083 6.55017 16.9505 6.55005C16.8181 6.55005 16.6906 6.6026 16.5968 6.69617C16.5031 6.78994 16.4501 6.91744 16.4501 7.05005C16.4501 7.1825 16.5026 7.30954 16.5962 7.40328C17.4932 8.30198 17.9892 9.469 17.9892 9.469C18.5001 10.683 18.5001 12 18.5001 12C18.5001 13.3171 17.9899 14.5295 17.9899 14.5295C17.4932 15.6981 16.5962 16.5968 16.5962 16.5968C16.5026 16.6906 16.4501 16.8176 16.4501 16.95C16.4502 17.0827 16.503 17.2102 16.5968 17.3039C16.6906 17.3975 16.8176 17.45 16.9501 17.45C17.0827 17.4499 17.2103 17.3971 17.304 17.3033C18.3378 16.2675 18.9102 14.9206 18.9102 14.9206C19.5001 13.519 19.5001 12 19.5001 12C19.5001 10.4811 18.9109 9.0811 18.9109 9.0811C18.3379 7.7328 17.3043 6.69713 17.3043 6.69713Z" fill="#1C1C1C"/>
</svg>
