<svg width="20" height="20" viewBox="0 0 20 20" fill="none" xmlns="http://www.w3.org/2000/svg">
<path d="M4.39087 8.12495C4.3898 7.38403 4.53537 6.65015 4.81918 5.96572C5.103 5.28125 5.51941 4.65972 6.04431 4.13688C6.56937 3.61404 7.19269 3.20022 7.87827 2.91927C8.564 2.63835 9.2984 2.49583 10.0394 2.49995C13.1331 2.52341 15.6096 5.09372 15.6096 8.19526V8.74995C15.6096 11.5469 16.1955 13.1718 16.7111 14.0625C16.7659 14.1573 16.7949 14.2649 16.7949 14.3744C16.795 14.4839 16.7664 14.5916 16.7117 14.6865C16.6571 14.7814 16.5785 14.8604 16.4839 14.9154C16.3892 14.9704 16.2816 14.9996 16.1722 15H3.82843C3.71887 14.9996 3.6113 14.9704 3.51669 14.9154C3.42194 14.8604 3.34335 14.7814 3.28873 14.6865C3.2341 14.5916 3.20541 14.4839 3.20557 14.3744C3.20572 14.2649 3.23456 14.1573 3.28934 14.0625C3.80493 13.1718 4.39087 11.5469 4.39087 8.74995V8.12495Z" fill="white" fill-opacity="0.2"/>
<path fill-rule="evenodd" clip-rule="evenodd" d="M3.76587 8.74994V8.12494C3.76587 8.12494 3.76411 6.87852 4.24182 5.72632C4.24182 5.72632 4.71953 4.57413 5.60334 3.69398C5.60334 3.69398 6.48715 2.81384 7.64132 2.34093C7.64132 2.34093 8.7955 1.86801 10.0428 1.87495C10.0428 1.87495 11.311 1.88456 12.4659 2.39122C12.4659 2.39122 13.5771 2.87869 14.4324 3.75733C14.4324 3.75733 15.2845 4.63254 15.7518 5.76109C15.7518 5.76109 16.2346 6.92723 16.2346 8.19526V8.74994C16.2346 8.74994 16.2346 11.9919 17.2521 13.7493C17.2521 13.7493 17.4196 14.0395 17.4199 14.3738C17.4199 14.3738 17.4202 14.7082 17.2535 14.998C17.2535 14.998 17.0869 15.2879 16.7978 15.4558C16.7978 15.4558 16.5087 15.6238 16.1743 15.6249L3.82837 15.6249C3.82837 15.6249 3.49182 15.6238 3.20271 15.4558C3.20271 15.4558 2.9136 15.2879 2.74693 14.998C2.74693 14.998 2.58027 14.7082 2.58057 14.3738C2.58057 14.3738 2.58086 14.0395 2.74804 13.7499C2.74804 13.7499 3.76587 11.9919 3.76587 8.74994ZM5.01587 8.74994C5.01587 8.74994 5.01587 12.3276 3.83057 14.3749L16.1699 14.3749C16.1699 14.3749 14.9846 12.3271 14.9846 8.74994V8.19526C14.9846 8.19526 14.9846 6.11647 13.5368 4.62928C13.5368 4.62928 12.0874 3.14048 10.0358 3.12493C10.0358 3.12493 9.03831 3.11938 8.11526 3.4976C8.11526 3.4976 7.19221 3.87581 6.48538 4.5797C6.48538 4.5797 5.77856 5.2836 5.39651 6.20507C5.39651 6.20507 5.01446 7.12654 5.01587 8.12494V8.74994Z" fill="white"/>
<path d="M13.125 15.625V15C13.125 14.6548 12.8452 14.375 12.5 14.375C12.1548 14.375 11.875 14.6548 11.875 15V15.625C11.875 16.4016 11.3258 16.9508 11.3258 16.9508C10.7766 17.5 10 17.5 10 17.5C9.22335 17.5 8.67417 16.9508 8.67417 16.9508C8.125 16.4016 8.125 15.625 8.125 15.625V15C8.125 14.6548 7.84518 14.375 7.5 14.375C7.15482 14.375 6.875 14.6548 6.875 15L6.875 15.625C6.875 16.9194 7.79029 17.8347 7.79029 17.8347C8.70558 18.75 10 18.75 10 18.75C11.2944 18.75 12.2097 17.8347 12.2097 17.8347C13.125 16.9194 13.125 15.625 13.125 15.625Z" fill="white"/>
</svg>
