<svg width="113" height="113" viewBox="0 0 113 113" fill="none" xmlns="http://www.w3.org/2000/svg">
<path d="M96.728 20.0128C92.7148 15.5493 85.843 15.1843 81.3795 19.1975C76.916 23.2108 76.551 30.0825 80.5643 34.546C85.7602 40.3249 88.909 47.9432 88.909 56.323C88.909 74.3198 74.3196 88.9091 56.3228 88.9091C38.3259 88.9091 23.7366 74.3198 23.7366 56.323C23.7366 54.4992 23.8854 52.7183 24.1693 50.9895C25.1419 45.0664 21.1288 39.4763 15.2057 38.5037C9.28267 37.531 3.69258 41.5441 2.71993 47.4672C2.24558 50.3558 2 53.3147 2 56.323C2 86.3246 26.3211 110.646 56.3228 110.646C86.3244 110.646 110.646 86.3246 110.646 56.323C110.646 42.3719 105.372 29.627 96.728 20.0128Z" fill="#BAEDBD" stroke="#282828" stroke-width="4" stroke-linecap="round" stroke-linejoin="round"/>
<path d="M31.9805 34.546C35.9938 30.0825 35.6287 23.2108 31.1653 19.1975C26.7018 15.1843 19.83 15.5493 15.8168 20.0128C11.6694 24.6255 8.29584 29.9594 5.90833 35.8108C3.64072 41.3684 6.30778 47.712 11.8654 49.9796C17.423 52.2472 23.7665 49.5801 26.0341 44.0225C27.4611 40.5252 29.4833 37.3234 31.9805 34.546Z" fill="#95A4FC" stroke="#282828" stroke-width="4" stroke-linecap="round" stroke-linejoin="round"/>
<path d="M37.4921 29.5712C42.7658 25.8926 49.1675 23.7366 56.1055 23.7366C63.0435 23.7366 69.4452 25.8926 74.7189 29.5712C79.642 33.0051 86.4167 31.798 89.8507 26.8749C93.2846 21.9518 92.0775 15.1771 87.1544 11.7431C78.3511 5.60264 67.6328 2 56.1055 2C44.5782 2 33.8599 5.60264 25.0566 11.7431C20.1335 15.1771 18.9264 21.9518 22.3603 26.8749C25.7943 31.798 32.569 33.0051 37.4921 29.5712Z" fill="#B1E3FF" stroke="#282828" stroke-width="4" stroke-linecap="round" stroke-linejoin="round"/>
<path d="M96.7286 20.0128C92.7154 15.5493 85.8436 15.1843 81.3801 19.1975C76.9166 23.2108 76.5516 30.0825 80.5648 34.546C85.7608 40.3249 88.9096 47.9432 88.9096 56.323C88.9096 74.3198 74.3202 88.9091 56.3234 88.9091C50.321 88.9091 45.4551 93.7751 45.4551 99.7775C45.4551 105.78 50.321 110.646 56.3234 110.646C86.325 110.646 110.646 86.3246 110.646 56.323C110.646 42.3719 105.373 29.627 96.7286 20.0128Z" fill="#C6C7F8" stroke="#282828" stroke-width="4" stroke-linecap="round" stroke-linejoin="round"/>
<path fill-rule="evenodd" clip-rule="evenodd" d="M56.3231 87.1687C59.1939 87.1687 61.9548 86.7822 64.5656 86.0656C71.178 84.2507 78.0097 88.1399 79.8246 94.7523C81.6395 101.365 77.7503 108.196 71.1379 110.011C66.4058 111.31 61.4351 112 56.3231 112C49.4661 112 43.9074 106.441 43.9074 99.5843C43.9074 92.7273 49.4661 87.1687 56.3231 87.1687Z" fill="#282828"/>
<path fill-rule="evenodd" clip-rule="evenodd" d="M56.3225 90.7166C59.5135 90.7166 62.59 90.2868 65.5039 89.4871C70.227 88.1907 75.1068 90.9687 76.4032 95.6918C77.6995 100.415 74.9216 105.295 70.1984 106.591C65.7693 107.807 61.1143 108.453 56.3225 108.453C45.2175 108.453 34.8964 104.984 26.4178 99.0697C22.4007 96.2677 21.4156 90.7397 24.2177 86.7226C27.0197 82.7054 32.5477 81.7204 36.5649 84.5224C42.1635 88.4276 48.9624 90.7166 56.3225 90.7166Z" fill="#BAEDBD"/>
</svg>
