<svg width="149" height="36" viewBox="0 0 149 36" fill="none" xmlns="http://www.w3.org/2000/svg">
<path d="M50.892 13.13C49.726 10.754 47.24 10.072 44.842 10.072C42.004 10.094 38.88 11.392 38.88 14.56C38.88 18.014 41.784 18.85 44.93 19.224C46.976 19.444 48.494 20.038 48.494 21.49C48.494 23.162 46.778 23.8 44.952 23.8C43.082 23.8 41.3 23.052 40.618 21.358L38.198 22.612C39.342 25.428 41.762 26.396 44.908 26.396C48.34 26.396 51.376 24.922 51.376 21.49C51.376 17.816 48.384 16.98 45.172 16.584C43.324 16.364 41.74 15.99 41.74 14.648C41.74 13.504 42.774 12.602 44.93 12.602C46.602 12.602 48.054 13.438 48.582 14.318L50.892 13.13ZM60.9269 22.854C60.2669 23.514 59.4089 23.756 58.5509 23.756C56.8789 23.756 55.4709 22.656 55.4709 20.588C55.4709 18.696 56.7909 17.376 58.5949 17.376C59.3429 17.376 60.1349 17.662 60.7729 18.234L62.4669 16.452C61.2789 15.286 60.0909 14.846 58.5509 14.846C55.4049 14.846 52.7869 16.738 52.7869 20.588C52.7869 24.438 55.4049 26.33 58.5509 26.33C60.1569 26.33 61.4769 25.846 62.7309 24.614L60.9269 22.854ZM69.2281 14.934C65.7741 14.934 63.6181 17.486 63.6181 20.588C63.6181 23.712 65.7301 26.242 69.2501 26.242C72.7701 26.242 74.9041 23.712 74.9041 20.588C74.9041 17.486 72.6821 14.934 69.2281 14.934ZM69.2501 17.376C71.0541 17.376 72.1981 18.96 72.1981 20.588C72.1981 22.238 71.2081 23.778 69.2501 23.778C67.2921 23.778 66.3021 22.238 66.3021 20.588C66.3021 18.96 67.3141 17.376 69.2501 17.376ZM76.757 15.154V26H79.441V20.28C79.441 18.278 80.739 17.53 82.147 17.53C83.027 17.53 83.533 17.772 84.083 18.234L85.293 15.902C84.699 15.308 83.621 14.868 82.499 14.868C81.399 14.868 80.277 15.066 79.441 16.408L79.243 15.154H76.757ZM97.054 21.534C97.472 17.068 95.206 14.824 91.576 14.824C88.056 14.824 85.812 17.2 85.812 20.5C85.812 23.976 88.034 26.286 91.774 26.286C93.424 26.286 95.294 25.714 96.438 24.526L94.722 22.832C94.106 23.47 92.808 23.844 91.818 23.844C89.926 23.844 88.76 22.876 88.584 21.534H97.054ZM88.628 19.312C89.024 17.904 90.212 17.2 91.664 17.2C93.204 17.2 94.304 17.904 94.48 19.312H88.628ZM106.539 19.334H110.983C112.171 19.334 113.865 20.06 113.865 21.446C113.865 22.898 112.171 23.294 110.983 23.294H106.539V19.334ZM106.539 13.24H110.983C112.831 13.24 113.403 14.428 113.403 15.132C113.403 16.012 112.809 16.782 110.983 16.782H106.539V13.24ZM110.983 10.6C108.541 10.6 106.099 10.6 103.679 10.6V26C106.121 26 108.541 26 110.983 26C114.173 26 116.747 24.9 116.747 21.468C116.747 20.5 116.087 18.586 114.283 18.036C115.713 17.398 116.285 16.254 116.285 15.066C116.285 11.964 114.019 10.6 110.983 10.6ZM123.691 14.934C120.237 14.934 118.081 17.486 118.081 20.588C118.081 23.712 120.193 26.242 123.713 26.242C127.233 26.242 129.367 23.712 129.367 20.588C129.367 17.486 127.145 14.934 123.691 14.934ZM123.713 17.376C125.517 17.376 126.661 18.96 126.661 20.588C126.661 22.238 125.671 23.778 123.713 23.778C121.755 23.778 120.765 22.238 120.765 20.588C120.765 18.96 121.777 17.376 123.713 17.376ZM135.779 18.828L133.645 15.154H130.433V15.242L133.997 20.5L130.213 25.934V26H133.425L135.779 22.37L138.133 26H141.345V25.934L137.561 20.5L141.125 15.242V15.154H137.913L135.779 18.828Z" fill="white"/>
<path d="M50.892 13.13L51.3493 14.0193L52.2221 13.5705L51.7897 12.6894L50.892 13.13ZM44.842 10.072V9.07197L44.8342 9.07203L44.842 10.072ZM44.93 19.224L44.8119 20.2171L44.8231 20.2183L44.93 19.224ZM40.618 21.358L41.5456 20.9845L41.1348 19.9639L40.1579 20.4701L40.618 21.358ZM38.198 22.612L37.7379 21.7241L36.9284 22.1436L37.2715 22.9884L38.198 22.612ZM45.172 16.584L45.2944 15.5915L45.2902 15.591L45.172 16.584ZM48.582 14.318L47.7245 14.8325L48.2064 15.6357L49.0393 15.2073L48.582 14.318ZM51.7897 12.6894C50.3677 9.79168 47.3693 9.072 44.842 9.072V11.072C47.1107 11.072 49.0843 11.7163 49.9943 13.5706L51.7897 12.6894ZM44.8342 9.07203C43.288 9.08402 41.5978 9.44056 40.2596 10.2928C38.8809 11.1707 37.88 12.5837 37.88 14.56H39.88C39.88 13.3683 40.4411 12.5483 41.3339 11.9797C42.2672 11.3854 43.558 11.082 44.8498 11.072L44.8342 9.07203ZM37.88 14.56C37.88 15.5674 38.0931 16.4419 38.5119 17.1845C38.9306 17.927 39.5238 18.4826 40.2019 18.8991C41.5214 19.7097 43.2258 20.0284 44.812 20.217L45.0481 18.231C43.4882 18.0456 42.1676 17.7593 41.2486 17.1949C40.8074 16.9239 40.4781 16.5995 40.2539 16.2021C40.0299 15.8049 39.88 15.2796 39.88 14.56H37.88ZM44.8231 20.2183C45.8059 20.3239 46.5333 20.5101 46.9888 20.7665C47.3876 20.9909 47.494 21.2069 47.494 21.49H49.494C49.494 20.3211 48.8414 19.5141 47.9697 19.0235C47.1547 18.5649 46.1001 18.3441 45.0369 18.2297L44.8231 20.2183ZM47.494 21.49C47.494 21.9032 47.3175 22.1761 46.9187 22.3997C46.4676 22.6526 45.7734 22.8 44.952 22.8V24.8C45.9566 24.8 47.0334 24.6284 47.8968 24.1443C48.8125 23.6309 49.494 22.7488 49.494 21.49H47.494ZM44.952 22.8C43.293 22.8 42.013 22.1454 41.5456 20.9845L39.6904 21.7315C40.587 23.9586 42.871 24.8 44.952 24.8V22.8ZM40.1579 20.4701L37.7379 21.7241L38.6581 23.4999L41.0781 22.2459L40.1579 20.4701ZM37.2715 22.9884C37.9292 24.6072 38.98 25.7389 40.3406 26.447C41.6754 27.1418 43.2438 27.396 44.908 27.396V25.396C43.4262 25.396 42.2116 25.1662 41.2639 24.673C40.342 24.1931 39.6108 23.4328 39.1245 22.2356L37.2715 22.9884ZM44.908 27.396C46.7461 27.396 48.5799 27.0045 49.9864 26.0603C51.4395 25.0848 52.376 23.5528 52.376 21.49H50.376C50.376 22.8592 49.7945 23.7802 48.8716 24.3997C47.9022 25.0505 46.5019 25.396 44.908 25.396V27.396ZM52.376 21.49C52.376 20.4329 52.1597 19.5202 51.7345 18.7472C51.3087 17.9731 50.7035 17.3937 50.0081 16.9595C48.6558 16.1151 46.9085 15.7905 45.2944 15.5915L45.0496 17.5765C46.6475 17.7735 48.0022 18.0649 48.9489 18.656C49.403 18.9395 49.7465 19.2828 49.9821 19.7111C50.2183 20.1405 50.376 20.7101 50.376 21.49H52.376ZM45.2902 15.591C44.3647 15.4808 43.6499 15.3443 43.1813 15.1284C42.9588 15.026 42.8528 14.9321 42.8046 14.8704C42.7697 14.8256 42.74 14.7691 42.74 14.648H40.74C40.74 15.1979 40.9083 15.6914 41.2281 16.1011C41.5347 16.4938 41.9402 16.7588 42.3447 16.9451C43.1301 17.3067 44.1313 17.4672 45.0538 17.577L45.2902 15.591ZM42.74 14.648C42.74 14.4153 42.8284 14.2047 43.0988 14.016C43.4024 13.8042 43.9747 13.602 44.93 13.602V11.602C43.7293 11.602 42.7066 11.8508 41.9542 12.376C41.1686 12.9243 40.74 13.7367 40.74 14.648H42.74ZM44.93 13.602C45.6022 13.602 46.2308 13.7709 46.7378 14.0244C47.2585 14.2848 47.5849 14.5997 47.7245 14.8325L49.4395 13.8035C49.0511 13.1563 48.3875 12.6132 47.6322 12.2356C46.8632 11.8511 45.9298 11.602 44.93 11.602V13.602ZM49.0393 15.2073L51.3493 14.0193L50.4347 12.2407L48.1247 13.4287L49.0393 15.2073ZM60.9269 22.854L61.6252 22.1382L60.9182 21.4485L60.2198 22.1469L60.9269 22.854ZM60.7729 18.234L60.1054 18.9786L60.8285 19.6269L61.4977 18.923L60.7729 18.234ZM62.4669 16.452L63.1917 17.141L63.8698 16.4277L63.1674 15.7383L62.4669 16.452ZM62.7309 24.614L63.4317 25.3273L64.1604 24.6115L63.4292 23.8982L62.7309 24.614ZM60.2198 22.1469C59.7977 22.569 59.2246 22.756 58.5509 22.756V24.756C59.5933 24.756 60.7362 24.459 61.634 23.5611L60.2198 22.1469ZM58.5509 22.756C57.9318 22.756 57.4213 22.554 57.073 22.2229C56.7346 21.901 56.4709 21.3832 56.4709 20.588H54.4709C54.4709 21.8608 54.9112 22.927 55.6948 23.6721C56.4685 24.408 57.498 24.756 58.5509 24.756V22.756ZM56.4709 20.588C56.4709 19.2297 57.3616 18.376 58.5949 18.376V16.376C56.2202 16.376 54.4709 18.1623 54.4709 20.588H56.4709ZM58.5949 18.376C59.0934 18.376 59.6485 18.5689 60.1054 18.9786L61.4405 17.4894C60.6214 16.7551 59.5925 16.376 58.5949 16.376V18.376ZM61.4977 18.923L63.1917 17.141L61.7421 15.763L60.0481 17.545L61.4977 18.923ZM63.1674 15.7383C61.7855 14.382 60.3431 13.846 58.5509 13.846V15.846C59.8388 15.846 60.7723 16.19 61.7665 17.1657L63.1674 15.7383ZM58.5509 13.846C56.784 13.846 55.0848 14.3782 53.8158 15.5339C52.5317 16.7034 51.7869 18.4222 51.7869 20.588H53.7869C53.7869 18.9038 54.3511 17.7516 55.1625 17.0126C55.989 16.2598 57.1718 15.846 58.5509 15.846V13.846ZM51.7869 20.588C51.7869 22.7538 52.5317 24.4726 53.8158 25.6421C55.0848 26.7978 56.784 27.33 58.5509 27.33V25.33C57.1718 25.33 55.989 24.9162 55.1625 24.1634C54.3511 23.4244 53.7869 22.2722 53.7869 20.588H51.7869ZM58.5509 27.33C60.4078 27.33 61.9828 26.7508 63.4317 25.3273L62.0301 23.9007C60.971 24.9412 59.9061 25.33 58.5509 25.33V27.33ZM63.4292 23.8982L61.6252 22.1382L60.2286 23.5698L62.0326 25.3298L63.4292 23.8982ZM69.2281 13.934C65.1706 13.934 62.6181 16.9864 62.6181 20.588H64.6181C64.6181 17.9856 66.3776 15.934 69.2281 15.934V13.934ZM62.6181 20.588C62.6181 22.3747 63.2239 24.0438 64.3878 25.2738C65.5595 26.5121 67.2376 27.242 69.2501 27.242V25.242C67.7426 25.242 66.6048 24.7069 65.8405 23.8992C65.0684 23.0832 64.6181 21.9253 64.6181 20.588H62.6181ZM69.2501 27.242C71.2622 27.242 72.9448 26.5124 74.1216 25.2759C75.291 24.0469 75.9041 22.3776 75.9041 20.588H73.9041C73.9041 21.9224 73.4502 23.0801 72.6727 23.8971C71.9025 24.7066 70.7581 25.242 69.2501 25.242V27.242ZM75.9041 20.588C75.9041 16.9701 73.2701 13.934 69.2281 13.934V15.934C72.0941 15.934 73.9041 18.0019 73.9041 20.588H75.9041ZM69.2501 18.376C70.3589 18.376 71.1981 19.3575 71.1981 20.588H73.1981C73.1981 18.5625 71.7494 16.376 69.2501 16.376V18.376ZM71.1981 20.588C71.1981 21.224 71.0062 21.782 70.6899 22.1619C70.3926 22.519 69.9401 22.778 69.2501 22.778V24.778C70.5182 24.778 71.5397 24.267 72.2269 23.4416C72.8951 22.639 73.1981 21.602 73.1981 20.588H71.1981ZM69.2501 22.778C68.5602 22.778 68.1077 22.519 67.8104 22.1619C67.4941 21.782 67.3021 21.224 67.3021 20.588H65.3021C65.3021 21.602 65.6052 22.639 66.2734 23.4416C66.9606 24.267 67.9821 24.778 69.2501 24.778V22.778ZM67.3021 20.588C67.3021 19.9697 67.496 19.4022 67.8213 19.0082C68.1283 18.6363 68.5837 18.376 69.2501 18.376V16.376C67.9806 16.376 66.962 16.9077 66.279 17.7348C65.6143 18.5398 65.3021 19.5783 65.3021 20.588H67.3021ZM76.757 15.154V14.154H75.757V15.154H76.757ZM76.757 26H75.757V27H76.757V26ZM79.441 26V27H80.441V26H79.441ZM84.083 18.234L83.4398 18.9997L84.3956 19.8026L84.9706 18.6946L84.083 18.234ZM85.293 15.902L86.1806 16.3626L86.5178 15.7126L86.0001 15.1949L85.293 15.902ZM79.441 16.408L78.4532 16.564L78.8715 19.2134L80.2897 16.9367L79.441 16.408ZM79.243 15.154L80.2307 14.998L80.0974 14.154H79.243V15.154ZM75.757 15.154V26H77.757V15.154H75.757ZM76.757 27H79.441V25H76.757V27ZM80.441 26V20.28H78.441V26H80.441ZM80.441 20.28C80.441 19.5089 80.6814 19.1192 80.9239 18.9073C81.1904 18.6745 81.606 18.53 82.147 18.53V16.53C81.2799 16.53 80.3425 16.7595 79.608 17.4012C78.8495 18.0638 78.441 19.0491 78.441 20.28H80.441ZM82.147 18.53C82.4919 18.53 82.7113 18.5769 82.8775 18.6412C83.0458 18.7064 83.2151 18.811 83.4398 18.9997L84.7261 17.4683C84.4009 17.195 84.0421 16.9476 83.5999 16.7763C83.1556 16.6041 82.682 16.53 82.147 16.53V18.53ZM84.9706 18.6946L86.1806 16.3626L84.4053 15.4414L83.1953 17.7734L84.9706 18.6946ZM86.0001 15.1949C85.19 14.3848 83.8429 13.868 82.499 13.868V15.868C83.399 15.868 84.2079 16.2312 84.5858 16.6091L86.0001 15.1949ZM82.499 13.868C81.8991 13.868 81.189 13.9195 80.487 14.2114C79.7612 14.5132 79.1138 15.0419 78.5922 15.8793L80.2897 16.9367C80.6041 16.4321 80.9357 16.1908 81.2549 16.0581C81.5979 15.9155 81.9988 15.868 82.499 15.868V13.868ZM80.4287 16.252L80.2307 14.998L78.2552 15.31L78.4532 16.564L80.4287 16.252ZM79.243 14.154H76.757V16.154H79.243V14.154ZM97.054 21.534V22.534H97.9648L98.0497 21.6272L97.054 21.534ZM96.438 24.526L97.1583 25.2196L97.8434 24.5082L97.1405 23.8143L96.438 24.526ZM94.722 22.832L95.4245 22.1203L94.705 21.41L94.0026 22.1374L94.722 22.832ZM88.584 21.534V20.534H87.4443L87.5925 21.664L88.584 21.534ZM88.628 19.312L87.6654 19.0413L87.308 20.312H88.628V19.312ZM94.48 19.312V20.312H95.6128L95.4723 19.188L94.48 19.312ZM98.0497 21.6272C98.2748 19.2221 97.7917 17.2403 96.5894 15.8501C95.381 14.4529 93.5942 13.824 91.576 13.824V15.824C93.1879 15.824 94.3491 16.3171 95.0767 17.1584C95.8103 18.0067 96.2513 19.3799 96.0584 21.4408L98.0497 21.6272ZM91.576 13.824C89.5842 13.824 87.8766 14.501 86.665 15.7193C85.4553 16.9357 84.812 18.6192 84.812 20.5H86.812C86.812 19.0808 87.2908 17.9263 88.0831 17.1297C88.8734 16.335 90.0478 15.824 91.576 15.824V13.824ZM84.812 20.5C84.812 22.4542 85.441 24.1746 86.6872 25.4074C87.9333 26.64 89.6957 27.286 91.774 27.286V25.286C90.1123 25.286 88.8938 24.777 88.0938 23.9856C87.294 23.1944 86.812 22.0218 86.812 20.5H84.812ZM91.774 27.286C93.6039 27.286 95.7704 26.661 97.1583 25.2196L95.7177 23.8324C94.8176 24.767 93.2441 25.286 91.774 25.286V27.286ZM97.1405 23.8143L95.4245 22.1203L94.0195 23.5437L95.7355 25.2377L97.1405 23.8143ZM94.0026 22.1374C93.8517 22.2937 93.5433 22.4804 93.097 22.6276C92.6655 22.7699 92.1991 22.844 91.818 22.844V24.844C92.4269 24.844 93.1045 24.7311 93.7235 24.5269C94.3277 24.3276 94.9763 24.0083 95.4414 23.5266L94.0026 22.1374ZM91.818 22.844C91.0388 22.844 90.4971 22.6453 90.1549 22.3903C89.8226 22.1427 89.6285 21.8081 89.5755 21.404L87.5925 21.664C87.7155 22.6019 88.1924 23.4223 88.9601 23.9942C89.7179 24.5587 90.7052 24.844 91.818 24.844V22.844ZM88.584 22.534H97.054V20.534H88.584V22.534ZM89.5907 19.5827C89.8392 18.6992 90.5552 18.2 91.664 18.2V16.2C89.8688 16.2 88.2089 17.1088 87.6654 19.0413L89.5907 19.5827ZM91.664 18.2C92.2924 18.2 92.7282 18.3446 92.9997 18.5399C93.2474 18.718 93.4318 18.9882 93.4877 19.436L95.4723 19.188C95.3523 18.2278 94.8986 17.442 94.1673 16.9161C93.4599 16.4074 92.5757 16.2 91.664 16.2V18.2ZM94.48 18.312H88.628V20.312H94.48V18.312ZM106.539 19.334V18.334H105.539V19.334H106.539ZM106.539 23.294H105.539V24.294H106.539V23.294ZM106.539 13.24V12.24H105.539V13.24H106.539ZM106.539 16.782H105.539V17.782H106.539V16.782ZM103.679 10.6V9.6H102.679V10.6H103.679ZM103.679 26H102.679V27H103.679V26ZM114.283 18.036L113.876 17.1228L111.433 18.2125L113.992 18.9925L114.283 18.036ZM106.539 20.334H110.983V18.334H106.539V20.334ZM110.983 20.334C111.404 20.334 111.939 20.4699 112.343 20.7201C112.74 20.9665 112.865 21.2194 112.865 21.446H114.865C114.865 20.2866 114.144 19.4835 113.397 19.0204C112.656 18.5611 111.751 18.334 110.983 18.334V20.334ZM112.865 21.446C112.865 21.6778 112.773 21.8481 112.43 22.0166C112.046 22.2048 111.495 22.294 110.983 22.294V24.294C111.66 24.294 112.55 24.1852 113.31 23.8124C114.111 23.4199 114.865 22.6662 114.865 21.446H112.865ZM110.983 22.294H106.539V24.294H110.983V22.294ZM107.539 23.294V19.334H105.539V23.294H107.539ZM106.539 14.24H110.983V12.24H106.539V14.24ZM110.983 14.24C111.679 14.24 112.011 14.4555 112.169 14.6188C112.35 14.8052 112.403 15.0231 112.403 15.132H114.403C114.403 14.5369 114.171 13.8088 113.604 13.2252C113.014 12.6185 112.136 12.24 110.983 12.24V14.24ZM112.403 15.132C112.403 15.3323 112.347 15.431 112.252 15.5072C112.122 15.6116 111.777 15.782 110.983 15.782V17.782C112.016 17.782 112.881 17.5674 113.504 17.0668C114.163 16.538 114.403 15.8117 114.403 15.132H112.403ZM110.983 15.782H106.539V17.782H110.983V15.782ZM107.539 16.782V13.24H105.539V16.782H107.539ZM110.983 9.6C110.979 9.6 110.974 9.6 110.969 9.6C110.964 9.6 110.96 9.6 110.955 9.6C110.95 9.6 110.945 9.6 110.941 9.6C110.936 9.6 110.931 9.6 110.926 9.6C110.921 9.6 110.917 9.6 110.912 9.6C110.907 9.6 110.902 9.6 110.898 9.6C110.893 9.6 110.888 9.6 110.883 9.6C110.879 9.6 110.874 9.6 110.869 9.6C110.864 9.6 110.859 9.6 110.855 9.6C110.85 9.6 110.845 9.6 110.84 9.6C110.836 9.6 110.831 9.6 110.826 9.6C110.821 9.6 110.817 9.6 110.812 9.6C110.807 9.6 110.802 9.6 110.797 9.6C110.793 9.6 110.788 9.6 110.783 9.6C110.778 9.6 110.774 9.6 110.769 9.6C110.764 9.6 110.759 9.6 110.755 9.6C110.75 9.6 110.745 9.6 110.74 9.6C110.735 9.6 110.731 9.6 110.726 9.6C110.721 9.6 110.716 9.6 110.712 9.6C110.707 9.6 110.702 9.6 110.697 9.6C110.693 9.6 110.688 9.6 110.683 9.6C110.678 9.6 110.673 9.6 110.669 9.6C110.664 9.6 110.659 9.6 110.654 9.6C110.65 9.6 110.645 9.6 110.64 9.6C110.635 9.6 110.631 9.6 110.626 9.6C110.621 9.6 110.616 9.6 110.611 9.6C110.607 9.6 110.602 9.6 110.597 9.6C110.592 9.6 110.588 9.6 110.583 9.6C110.578 9.6 110.573 9.6 110.569 9.6C110.564 9.6 110.559 9.6 110.554 9.6C110.549 9.6 110.545 9.6 110.54 9.6C110.535 9.6 110.53 9.6 110.526 9.6C110.521 9.6 110.516 9.6 110.511 9.6C110.507 9.6 110.502 9.6 110.497 9.6C110.492 9.6 110.487 9.6 110.483 9.6C110.478 9.6 110.473 9.6 110.468 9.6C110.464 9.6 110.459 9.6 110.454 9.6C110.449 9.6 110.445 9.6 110.44 9.6C110.435 9.6 110.43 9.6 110.425 9.6C110.421 9.6 110.416 9.6 110.411 9.6C110.406 9.6 110.402 9.6 110.397 9.6C110.392 9.6 110.387 9.6 110.383 9.6C110.378 9.6 110.373 9.6 110.368 9.6C110.363 9.6 110.359 9.6 110.354 9.6C110.349 9.6 110.344 9.6 110.34 9.6C110.335 9.6 110.33 9.6 110.325 9.6C110.321 9.6 110.316 9.6 110.311 9.6C110.306 9.6 110.301 9.6 110.297 9.6C110.292 9.6 110.287 9.6 110.282 9.6C110.278 9.6 110.273 9.6 110.268 9.6C110.263 9.6 110.259 9.6 110.254 9.6C110.249 9.6 110.244 9.6 110.239 9.6C110.235 9.6 110.23 9.6 110.225 9.6C110.22 9.6 110.216 9.6 110.211 9.6C110.206 9.6 110.201 9.6 110.197 9.6C110.192 9.6 110.187 9.6 110.182 9.6C110.177 9.6 110.173 9.6 110.168 9.6C110.163 9.6 110.158 9.6 110.154 9.6C110.149 9.6 110.144 9.6 110.139 9.6C110.135 9.6 110.13 9.6 110.125 9.6C110.12 9.6 110.115 9.6 110.111 9.6C110.106 9.6 110.101 9.6 110.096 9.6C110.092 9.6 110.087 9.6 110.082 9.6C110.077 9.6 110.073 9.6 110.068 9.6C110.063 9.6 110.058 9.6 110.053 9.6C110.049 9.6 110.044 9.6 110.039 9.6C110.034 9.6 110.03 9.6 110.025 9.6C110.02 9.6 110.015 9.6 110.011 9.6C110.006 9.6 110.001 9.6 109.996 9.6C109.991 9.6 109.987 9.6 109.982 9.6C109.977 9.6 109.972 9.6 109.968 9.6C109.963 9.6 109.958 9.6 109.953 9.6C109.949 9.6 109.944 9.6 109.939 9.6C109.934 9.6 109.929 9.6 109.925 9.6C109.92 9.6 109.915 9.6 109.91 9.6C109.906 9.6 109.901 9.6 109.896 9.6C109.891 9.6 109.887 9.6 109.882 9.6C109.877 9.6 109.872 9.6 109.867 9.6C109.863 9.6 109.858 9.6 109.853 9.6C109.848 9.6 109.844 9.6 109.839 9.6C109.834 9.6 109.829 9.6 109.825 9.6C109.82 9.6 109.815 9.6 109.81 9.6C109.805 9.6 109.801 9.6 109.796 9.6C109.791 9.6 109.786 9.6 109.782 9.6C109.777 9.6 109.772 9.6 109.767 9.6C109.763 9.6 109.758 9.6 109.753 9.6C109.748 9.6 109.743 9.6 109.739 9.6C109.734 9.6 109.729 9.6 109.724 9.6C109.72 9.6 109.715 9.6 109.71 9.6C109.705 9.6 109.701 9.6 109.696 9.6C109.691 9.6 109.686 9.6 109.681 9.6C109.677 9.6 109.672 9.6 109.667 9.6C109.662 9.6 109.658 9.6 109.653 9.6C109.648 9.6 109.643 9.6 109.639 9.6C109.634 9.6 109.629 9.6 109.624 9.6C109.62 9.6 109.615 9.6 109.61 9.6C109.605 9.6 109.6 9.6 109.596 9.6C109.591 9.6 109.586 9.6 109.581 9.6C109.577 9.6 109.572 9.6 109.567 9.6C109.562 9.6 109.558 9.6 109.553 9.6C109.548 9.6 109.543 9.6 109.538 9.6C109.534 9.6 109.529 9.6 109.524 9.6C109.519 9.6 109.515 9.6 109.51 9.6C109.505 9.6 109.5 9.6 109.496 9.6C109.491 9.6 109.486 9.6 109.481 9.6C109.476 9.6 109.472 9.6 109.467 9.6C109.462 9.6 109.457 9.6 109.453 9.6C109.448 9.6 109.443 9.6 109.438 9.6C109.434 9.6 109.429 9.6 109.424 9.6C109.419 9.6 109.414 9.6 109.41 9.6C109.405 9.6 109.4 9.6 109.395 9.6C109.391 9.6 109.386 9.6 109.381 9.6C109.376 9.6 109.372 9.6 109.367 9.6C109.362 9.6 109.357 9.6 109.353 9.6C109.348 9.6 109.343 9.6 109.338 9.6C109.333 9.6 109.329 9.6 109.324 9.6C109.319 9.6 109.314 9.6 109.31 9.6C109.305 9.6 109.3 9.6 109.295 9.6C109.291 9.6 109.286 9.6 109.281 9.6C109.276 9.6 109.271 9.6 109.267 9.6C109.262 9.6 109.257 9.6 109.252 9.6C109.248 9.6 109.243 9.6 109.238 9.6C109.233 9.6 109.229 9.6 109.224 9.6C109.219 9.6 109.214 9.6 109.21 9.6C109.205 9.6 109.2 9.6 109.195 9.6C109.19 9.6 109.186 9.6 109.181 9.6C109.176 9.6 109.171 9.6 109.167 9.6C109.162 9.6 109.157 9.6 109.152 9.6C109.148 9.6 109.143 9.6 109.138 9.6C109.133 9.6 109.128 9.6 109.124 9.6C109.119 9.6 109.114 9.6 109.109 9.6C109.105 9.6 109.1 9.6 109.095 9.6C109.09 9.6 109.086 9.6 109.081 9.6C109.076 9.6 109.071 9.6 109.066 9.6C109.062 9.6 109.057 9.6 109.052 9.6C109.047 9.6 109.043 9.6 109.038 9.6C109.033 9.6 109.028 9.6 109.024 9.6C109.019 9.6 109.014 9.6 109.009 9.6C109.005 9.6 109 9.6 108.995 9.6C108.99 9.6 108.985 9.6 108.981 9.6C108.976 9.6 108.971 9.6 108.966 9.6C108.962 9.6 108.957 9.6 108.952 9.6C108.947 9.6 108.943 9.6 108.938 9.6C108.933 9.6 108.928 9.6 108.924 9.6C108.919 9.6 108.914 9.6 108.909 9.6C108.904 9.6 108.9 9.6 108.895 9.6C108.89 9.6 108.885 9.6 108.881 9.6C108.876 9.6 108.871 9.6 108.866 9.6C108.862 9.6 108.857 9.6 108.852 9.6C108.847 9.6 108.842 9.6 108.838 9.6C108.833 9.6 108.828 9.6 108.823 9.6C108.819 9.6 108.814 9.6 108.809 9.6C108.804 9.6 108.8 9.6 108.795 9.6C108.79 9.6 108.785 9.6 108.781 9.6C108.776 9.6 108.771 9.6 108.766 9.6C108.761 9.6 108.757 9.6 108.752 9.6C108.747 9.6 108.742 9.6 108.738 9.6C108.733 9.6 108.728 9.6 108.723 9.6C108.719 9.6 108.714 9.6 108.709 9.6C108.704 9.6 108.7 9.6 108.695 9.6C108.69 9.6 108.685 9.6 108.68 9.6C108.676 9.6 108.671 9.6 108.666 9.6C108.661 9.6 108.657 9.6 108.652 9.6C108.647 9.6 108.642 9.6 108.638 9.6C108.633 9.6 108.628 9.6 108.623 9.6C108.619 9.6 108.614 9.6 108.609 9.6C108.604 9.6 108.599 9.6 108.595 9.6C108.59 9.6 108.585 9.6 108.58 9.6C108.576 9.6 108.571 9.6 108.566 9.6C108.561 9.6 108.557 9.6 108.552 9.6C108.547 9.6 108.542 9.6 108.538 9.6C108.533 9.6 108.528 9.6 108.523 9.6C108.518 9.6 108.514 9.6 108.509 9.6C108.504 9.6 108.499 9.6 108.495 9.6C108.49 9.6 108.485 9.6 108.48 9.6C108.476 9.6 108.471 9.6 108.466 9.6C108.461 9.6 108.457 9.6 108.452 9.6C108.447 9.6 108.442 9.6 108.437 9.6C108.433 9.6 108.428 9.6 108.423 9.6C108.418 9.6 108.414 9.6 108.409 9.6C108.404 9.6 108.399 9.6 108.395 9.6C108.39 9.6 108.385 9.6 108.38 9.6C108.376 9.6 108.371 9.6 108.366 9.6C108.361 9.6 108.356 9.6 108.352 9.6C108.347 9.6 108.342 9.6 108.337 9.6C108.333 9.6 108.328 9.6 108.323 9.6C108.318 9.6 108.314 9.6 108.309 9.6C108.304 9.6 108.299 9.6 108.295 9.6C108.29 9.6 108.285 9.6 108.28 9.6C108.275 9.6 108.271 9.6 108.266 9.6C108.261 9.6 108.256 9.6 108.252 9.6C108.247 9.6 108.242 9.6 108.237 9.6C108.233 9.6 108.228 9.6 108.223 9.6C108.218 9.6 108.214 9.6 108.209 9.6C108.204 9.6 108.199 9.6 108.194 9.6C108.19 9.6 108.185 9.6 108.18 9.6C108.175 9.6 108.171 9.6 108.166 9.6C108.161 9.6 108.156 9.6 108.152 9.6C108.147 9.6 108.142 9.6 108.137 9.6C108.133 9.6 108.128 9.6 108.123 9.6C108.118 9.6 108.114 9.6 108.109 9.6C108.104 9.6 108.099 9.6 108.094 9.6C108.09 9.6 108.085 9.6 108.08 9.6C108.075 9.6 108.071 9.6 108.066 9.6C108.061 9.6 108.056 9.6 108.052 9.6C108.047 9.6 108.042 9.6 108.037 9.6C108.033 9.6 108.028 9.6 108.023 9.6C108.018 9.6 108.014 9.6 108.009 9.6C108.004 9.6 107.999 9.6 107.994 9.6C107.99 9.6 107.985 9.6 107.98 9.6C107.975 9.6 107.971 9.6 107.966 9.6C107.961 9.6 107.956 9.6 107.952 9.6C107.947 9.6 107.942 9.6 107.937 9.6C107.933 9.6 107.928 9.6 107.923 9.6C107.918 9.6 107.913 9.6 107.909 9.6C107.904 9.6 107.899 9.6 107.894 9.6C107.89 9.6 107.885 9.6 107.88 9.6C107.875 9.6 107.871 9.6 107.866 9.6C107.861 9.6 107.856 9.6 107.852 9.6C107.847 9.6 107.842 9.6 107.837 9.6C107.833 9.6 107.828 9.6 107.823 9.6C107.818 9.6 107.813 9.6 107.809 9.6C107.804 9.6 107.799 9.6 107.794 9.6C107.79 9.6 107.785 9.6 107.78 9.6C107.775 9.6 107.771 9.6 107.766 9.6C107.761 9.6 107.756 9.6 107.752 9.6C107.747 9.6 107.742 9.6 107.737 9.6C107.733 9.6 107.728 9.6 107.723 9.6C107.718 9.6 107.714 9.6 107.709 9.6C107.704 9.6 107.699 9.6 107.694 9.6C107.69 9.6 107.685 9.6 107.68 9.6C107.675 9.6 107.671 9.6 107.666 9.6C107.661 9.6 107.656 9.6 107.652 9.6C107.647 9.6 107.642 9.6 107.637 9.6C107.633 9.6 107.628 9.6 107.623 9.6C107.618 9.6 107.614 9.6 107.609 9.6C107.604 9.6 107.599 9.6 107.594 9.6C107.59 9.6 107.585 9.6 107.58 9.6C107.575 9.6 107.571 9.6 107.566 9.6C107.561 9.6 107.556 9.6 107.552 9.6C107.547 9.6 107.542 9.6 107.537 9.6C107.533 9.6 107.528 9.6 107.523 9.6C107.518 9.6 107.514 9.6 107.509 9.6C107.504 9.6 107.499 9.6 107.495 9.6C107.49 9.6 107.485 9.6 107.48 9.6C107.476 9.6 107.471 9.6 107.466 9.6C107.461 9.6 107.456 9.6 107.452 9.6C107.447 9.6 107.442 9.6 107.437 9.6C107.433 9.6 107.428 9.6 107.423 9.6C107.418 9.6 107.414 9.6 107.409 9.6C107.404 9.6 107.399 9.6 107.395 9.6C107.39 9.6 107.385 9.6 107.38 9.6C107.376 9.6 107.371 9.6 107.366 9.6C107.361 9.6 107.357 9.6 107.352 9.6C107.347 9.6 107.342 9.6 107.337 9.6C107.333 9.6 107.328 9.6 107.323 9.6C107.318 9.6 107.314 9.6 107.309 9.6C107.304 9.6 107.299 9.6 107.295 9.6C107.29 9.6 107.285 9.6 107.28 9.6C107.276 9.6 107.271 9.6 107.266 9.6C107.261 9.6 107.257 9.6 107.252 9.6C107.247 9.6 107.242 9.6 107.238 9.6C107.233 9.6 107.228 9.6 107.223 9.6C107.219 9.6 107.214 9.6 107.209 9.6C107.204 9.6 107.199 9.6 107.195 9.6C107.19 9.6 107.185 9.6 107.18 9.6C107.176 9.6 107.171 9.6 107.166 9.6C107.161 9.6 107.157 9.6 107.152 9.6C107.147 9.6 107.142 9.6 107.138 9.6C107.133 9.6 107.128 9.6 107.123 9.6C107.119 9.6 107.114 9.6 107.109 9.6C107.104 9.6 107.1 9.6 107.095 9.6C107.09 9.6 107.085 9.6 107.081 9.6C107.076 9.6 107.071 9.6 107.066 9.6C107.062 9.6 107.057 9.6 107.052 9.6C107.047 9.6 107.042 9.6 107.038 9.6C107.033 9.6 107.028 9.6 107.023 9.6C107.019 9.6 107.014 9.6 107.009 9.6C107.004 9.6 107 9.6 106.995 9.6C106.99 9.6 106.985 9.6 106.981 9.6C106.976 9.6 106.971 9.6 106.966 9.6C106.962 9.6 106.957 9.6 106.952 9.6C106.947 9.6 106.943 9.6 106.938 9.6C106.933 9.6 106.928 9.6 106.924 9.6C106.919 9.6 106.914 9.6 106.909 9.6C106.905 9.6 106.9 9.6 106.895 9.6C106.89 9.6 106.886 9.6 106.881 9.6C106.876 9.6 106.871 9.6 106.866 9.6C106.862 9.6 106.857 9.6 106.852 9.6C106.847 9.6 106.843 9.6 106.838 9.6C106.833 9.6 106.828 9.6 106.824 9.6C106.819 9.6 106.814 9.6 106.809 9.6C106.805 9.6 106.8 9.6 106.795 9.6C106.79 9.6 106.786 9.6 106.781 9.6C106.776 9.6 106.771 9.6 106.767 9.6C106.762 9.6 106.757 9.6 106.752 9.6C106.748 9.6 106.743 9.6 106.738 9.6C106.733 9.6 106.729 9.6 106.724 9.6C106.719 9.6 106.714 9.6 106.71 9.6C106.705 9.6 106.7 9.6 106.695 9.6C106.691 9.6 106.686 9.6 106.681 9.6C106.676 9.6 106.672 9.6 106.667 9.6C106.662 9.6 106.657 9.6 106.653 9.6C106.648 9.6 106.643 9.6 106.638 9.6C106.633 9.6 106.629 9.6 106.624 9.6C106.619 9.6 106.614 9.6 106.61 9.6C106.605 9.6 106.6 9.6 106.595 9.6C106.591 9.6 106.586 9.6 106.581 9.6C106.576 9.6 106.572 9.6 106.567 9.6C106.562 9.6 106.557 9.6 106.553 9.6C106.548 9.6 106.543 9.6 106.538 9.6C106.534 9.6 106.529 9.6 106.524 9.6C106.519 9.6 106.515 9.6 106.51 9.6C106.505 9.6 106.5 9.6 106.496 9.6C106.491 9.6 106.486 9.6 106.481 9.6C106.477 9.6 106.472 9.6 106.467 9.6C106.462 9.6 106.458 9.6 106.453 9.6C106.448 9.6 106.443 9.6 106.439 9.6C106.434 9.6 106.429 9.6 106.424 9.6C106.42 9.6 106.415 9.6 106.41 9.6C106.405 9.6 106.401 9.6 106.396 9.6C106.391 9.6 106.386 9.6 106.382 9.6C106.377 9.6 106.372 9.6 106.367 9.6C106.363 9.6 106.358 9.6 106.353 9.6C106.348 9.6 106.344 9.6 106.339 9.6C106.334 9.6 106.329 9.6 106.325 9.6C106.32 9.6 106.315 9.6 106.31 9.6C106.306 9.6 106.301 9.6 106.296 9.6C106.291 9.6 106.287 9.6 106.282 9.6C106.277 9.6 106.272 9.6 106.268 9.6C106.263 9.6 106.258 9.6 106.253 9.6C106.249 9.6 106.244 9.6 106.239 9.6C106.234 9.6 106.229 9.6 106.225 9.6C106.22 9.6 106.215 9.6 106.21 9.6C106.206 9.6 106.201 9.6 106.196 9.6C106.191 9.6 106.187 9.6 106.182 9.6C106.177 9.6 106.172 9.6 106.168 9.6C106.163 9.6 106.158 9.6 106.153 9.6C106.149 9.6 106.144 9.6 106.139 9.6C106.134 9.6 106.13 9.6 106.125 9.6C106.12 9.6 106.115 9.6 106.111 9.6C106.106 9.6 106.101 9.6 106.096 9.6C106.092 9.6 106.087 9.6 106.082 9.6C106.077 9.6 106.073 9.6 106.068 9.6C106.063 9.6 106.058 9.6 106.054 9.6C106.049 9.6 106.044 9.6 106.039 9.6C106.035 9.6 106.03 9.6 106.025 9.6C106.02 9.6 106.016 9.6 106.011 9.6C106.006 9.6 106.001 9.6 105.997 9.6C105.992 9.6 105.987 9.6 105.982 9.6C105.978 9.6 105.973 9.6 105.968 9.6C105.963 9.6 105.959 9.6 105.954 9.6C105.949 9.6 105.944 9.6 105.94 9.6C105.935 9.6 105.93 9.6 105.925 9.6C105.921 9.6 105.916 9.6 105.911 9.6C105.906 9.6 105.902 9.6 105.897 9.6C105.892 9.6 105.887 9.6 105.883 9.6C105.878 9.6 105.873 9.6 105.868 9.6C105.864 9.6 105.859 9.6 105.854 9.6C105.85 9.6 105.845 9.6 105.84 9.6C105.835 9.6 105.831 9.6 105.826 9.6C105.821 9.6 105.816 9.6 105.812 9.6C105.807 9.6 105.802 9.6 105.797 9.6C105.793 9.6 105.788 9.6 105.783 9.6C105.778 9.6 105.774 9.6 105.769 9.6C105.764 9.6 105.759 9.6 105.755 9.6C105.75 9.6 105.745 9.6 105.74 9.6C105.736 9.6 105.731 9.6 105.726 9.6C105.721 9.6 105.717 9.6 105.712 9.6C105.707 9.6 105.702 9.6 105.698 9.6C105.693 9.6 105.688 9.6 105.683 9.6C105.679 9.6 105.674 9.6 105.669 9.6C105.664 9.6 105.66 9.6 105.655 9.6C105.65 9.6 105.645 9.6 105.641 9.6C105.636 9.6 105.631 9.6 105.626 9.6C105.622 9.6 105.617 9.6 105.612 9.6C105.607 9.6 105.603 9.6 105.598 9.6C105.593 9.6 105.588 9.6 105.584 9.6C105.579 9.6 105.574 9.6 105.569 9.6C105.565 9.6 105.56 9.6 105.555 9.6C105.55 9.6 105.546 9.6 105.541 9.6C105.536 9.6 105.531 9.6 105.527 9.6C105.522 9.6 105.517 9.6 105.512 9.6C105.508 9.6 105.503 9.6 105.498 9.6C105.493 9.6 105.489 9.6 105.484 9.6C105.479 9.6 105.475 9.6 105.47 9.6C105.465 9.6 105.46 9.6 105.456 9.6C105.451 9.6 105.446 9.6 105.441 9.6C105.437 9.6 105.432 9.6 105.427 9.6C105.422 9.6 105.418 9.6 105.413 9.6C105.408 9.6 105.403 9.6 105.399 9.6C105.394 9.6 105.389 9.6 105.384 9.6C105.38 9.6 105.375 9.6 105.37 9.6C105.365 9.6 105.361 9.6 105.356 9.6C105.351 9.6 105.346 9.6 105.342 9.6C105.337 9.6 105.332 9.6 105.327 9.6C105.323 9.6 105.318 9.6 105.313 9.6C105.308 9.6 105.304 9.6 105.299 9.6C105.294 9.6 105.289 9.6 105.285 9.6C105.28 9.6 105.275 9.6 105.271 9.6C105.266 9.6 105.261 9.6 105.256 9.6C105.252 9.6 105.247 9.6 105.242 9.6C105.237 9.6 105.233 9.6 105.228 9.6C105.223 9.6 105.218 9.6 105.214 9.6C105.209 9.6 105.204 9.6 105.199 9.6C105.195 9.6 105.19 9.6 105.185 9.6C105.18 9.6 105.176 9.6 105.171 9.6C105.166 9.6 105.161 9.6 105.157 9.6C105.152 9.6 105.147 9.6 105.142 9.6C105.138 9.6 105.133 9.6 105.128 9.6C105.123 9.6 105.119 9.6 105.114 9.6C105.109 9.6 105.105 9.6 105.1 9.6C105.095 9.6 105.09 9.6 105.086 9.6C105.081 9.6 105.076 9.6 105.071 9.6C105.067 9.6 105.062 9.6 105.057 9.6C105.052 9.6 105.048 9.6 105.043 9.6C105.038 9.6 105.033 9.6 105.029 9.6C105.024 9.6 105.019 9.6 105.014 9.6C105.01 9.6 105.005 9.6 105 9.6C104.995 9.6 104.991 9.6 104.986 9.6C104.981 9.6 104.977 9.6 104.972 9.6C104.967 9.6 104.962 9.6 104.958 9.6C104.953 9.6 104.948 9.6 104.943 9.6C104.939 9.6 104.934 9.6 104.929 9.6C104.924 9.6 104.92 9.6 104.915 9.6C104.91 9.6 104.905 9.6 104.901 9.6C104.896 9.6 104.891 9.6 104.886 9.6C104.882 9.6 104.877 9.6 104.872 9.6C104.867 9.6 104.863 9.6 104.858 9.6C104.853 9.6 104.849 9.6 104.844 9.6C104.839 9.6 104.834 9.6 104.83 9.6C104.825 9.6 104.82 9.6 104.815 9.6C104.811 9.6 104.806 9.6 104.801 9.6C104.796 9.6 104.792 9.6 104.787 9.6C104.782 9.6 104.777 9.6 104.773 9.6C104.768 9.6 104.763 9.6 104.758 9.6C104.754 9.6 104.749 9.6 104.744 9.6C104.74 9.6 104.735 9.6 104.73 9.6C104.725 9.6 104.721 9.6 104.716 9.6C104.711 9.6 104.706 9.6 104.702 9.6C104.697 9.6 104.692 9.6 104.687 9.6C104.683 9.6 104.678 9.6 104.673 9.6C104.668 9.6 104.664 9.6 104.659 9.6C104.654 9.6 104.65 9.6 104.645 9.6C104.64 9.6 104.635 9.6 104.631 9.6C104.626 9.6 104.621 9.6 104.616 9.6C104.612 9.6 104.607 9.6 104.602 9.6C104.597 9.6 104.593 9.6 104.588 9.6C104.583 9.6 104.578 9.6 104.574 9.6C104.569 9.6 104.564 9.6 104.56 9.6C104.555 9.6 104.55 9.6 104.545 9.6C104.541 9.6 104.536 9.6 104.531 9.6C104.526 9.6 104.522 9.6 104.517 9.6C104.512 9.6 104.507 9.6 104.503 9.6C104.498 9.6 104.493 9.6 104.488 9.6C104.484 9.6 104.479 9.6 104.474 9.6C104.47 9.6 104.465 9.6 104.46 9.6C104.455 9.6 104.451 9.6 104.446 9.6C104.441 9.6 104.436 9.6 104.432 9.6C104.427 9.6 104.422 9.6 104.417 9.6C104.413 9.6 104.408 9.6 104.403 9.6C104.399 9.6 104.394 9.6 104.389 9.6C104.384 9.6 104.38 9.6 104.375 9.6C104.37 9.6 104.365 9.6 104.361 9.6C104.356 9.6 104.351 9.6 104.346 9.6C104.342 9.6 104.337 9.6 104.332 9.6C104.327 9.6 104.323 9.6 104.318 9.6C104.313 9.6 104.309 9.6 104.304 9.6C104.299 9.6 104.294 9.6 104.29 9.6C104.285 9.6 104.28 9.6 104.275 9.6C104.271 9.6 104.266 9.6 104.261 9.6C104.257 9.6 104.252 9.6 104.247 9.6C104.242 9.6 104.238 9.6 104.233 9.6C104.228 9.6 104.223 9.6 104.219 9.6C104.214 9.6 104.209 9.6 104.204 9.6C104.2 9.6 104.195 9.6 104.19 9.6C104.186 9.6 104.181 9.6 104.176 9.6C104.171 9.6 104.167 9.6 104.162 9.6C104.157 9.6 104.152 9.6 104.148 9.6C104.143 9.6 104.138 9.6 104.133 9.6C104.129 9.6 104.124 9.6 104.119 9.6C104.115 9.6 104.11 9.6 104.105 9.6C104.1 9.6 104.096 9.6 104.091 9.6C104.086 9.6 104.081 9.6 104.077 9.6C104.072 9.6 104.067 9.6 104.062 9.6C104.058 9.6 104.053 9.6 104.048 9.6C104.044 9.6 104.039 9.6 104.034 9.6C104.029 9.6 104.025 9.6 104.02 9.6C104.015 9.6 104.01 9.6 104.006 9.6C104.001 9.6 103.996 9.6 103.992 9.6C103.987 9.6 103.982 9.6 103.977 9.6C103.973 9.6 103.968 9.6 103.963 9.6C103.958 9.6 103.954 9.6 103.949 9.6C103.944 9.6 103.939 9.6 103.935 9.6C103.93 9.6 103.925 9.6 103.921 9.6C103.916 9.6 103.911 9.6 103.906 9.6C103.902 9.6 103.897 9.6 103.892 9.6C103.887 9.6 103.883 9.6 103.878 9.6C103.873 9.6 103.869 9.6 103.864 9.6C103.859 9.6 103.854 9.6 103.85 9.6C103.845 9.6 103.84 9.6 103.835 9.6C103.831 9.6 103.826 9.6 103.821 9.6C103.817 9.6 103.812 9.6 103.807 9.6C103.802 9.6 103.798 9.6 103.793 9.6C103.788 9.6 103.783 9.6 103.779 9.6C103.774 9.6 103.769 9.6 103.765 9.6C103.76 9.6 103.755 9.6 103.75 9.6C103.746 9.6 103.741 9.6 103.736 9.6C103.731 9.6 103.727 9.6 103.722 9.6C103.717 9.6 103.713 9.6 103.708 9.6C103.703 9.6 103.698 9.6 103.694 9.6C103.689 9.6 103.684 9.6 103.679 9.6V11.6C103.684 11.6 103.689 11.6 103.694 11.6C103.698 11.6 103.703 11.6 103.708 11.6C103.713 11.6 103.717 11.6 103.722 11.6C103.727 11.6 103.731 11.6 103.736 11.6C103.741 11.6 103.746 11.6 103.75 11.6C103.755 11.6 103.76 11.6 103.765 11.6C103.769 11.6 103.774 11.6 103.779 11.6C103.783 11.6 103.788 11.6 103.793 11.6C103.798 11.6 103.802 11.6 103.807 11.6C103.812 11.6 103.817 11.6 103.821 11.6C103.826 11.6 103.831 11.6 103.835 11.6C103.84 11.6 103.845 11.6 103.85 11.6C103.854 11.6 103.859 11.6 103.864 11.6C103.869 11.6 103.873 11.6 103.878 11.6C103.883 11.6 103.887 11.6 103.892 11.6C103.897 11.6 103.902 11.6 103.906 11.6C103.911 11.6 103.916 11.6 103.921 11.6C103.925 11.6 103.93 11.6 103.935 11.6C103.939 11.6 103.944 11.6 103.949 11.6C103.954 11.6 103.958 11.6 103.963 11.6C103.968 11.6 103.973 11.6 103.977 11.6C103.982 11.6 103.987 11.6 103.992 11.6C103.996 11.6 104.001 11.6 104.006 11.6C104.01 11.6 104.015 11.6 104.02 11.6C104.025 11.6 104.029 11.6 104.034 11.6C104.039 11.6 104.044 11.6 104.048 11.6C104.053 11.6 104.058 11.6 104.062 11.6C104.067 11.6 104.072 11.6 104.077 11.6C104.081 11.6 104.086 11.6 104.091 11.6C104.096 11.6 104.1 11.6 104.105 11.6C104.11 11.6 104.115 11.6 104.119 11.6C104.124 11.6 104.129 11.6 104.133 11.6C104.138 11.6 104.143 11.6 104.148 11.6C104.152 11.6 104.157 11.6 104.162 11.6C104.167 11.6 104.171 11.6 104.176 11.6C104.181 11.6 104.186 11.6 104.19 11.6C104.195 11.6 104.2 11.6 104.204 11.6C104.209 11.6 104.214 11.6 104.219 11.6C104.223 11.6 104.228 11.6 104.233 11.6C104.238 11.6 104.242 11.6 104.247 11.6C104.252 11.6 104.257 11.6 104.261 11.6C104.266 11.6 104.271 11.6 104.275 11.6C104.28 11.6 104.285 11.6 104.29 11.6C104.294 11.6 104.299 11.6 104.304 11.6C104.309 11.6 104.313 11.6 104.318 11.6C104.323 11.6 104.327 11.6 104.332 11.6C104.337 11.6 104.342 11.6 104.346 11.6C104.351 11.6 104.356 11.6 104.361 11.6C104.365 11.6 104.37 11.6 104.375 11.6C104.38 11.6 104.384 11.6 104.389 11.6C104.394 11.6 104.399 11.6 104.403 11.6C104.408 11.6 104.413 11.6 104.417 11.6C104.422 11.6 104.427 11.6 104.432 11.6C104.436 11.6 104.441 11.6 104.446 11.6C104.451 11.6 104.455 11.6 104.46 11.6C104.465 11.6 104.47 11.6 104.474 11.6C104.479 11.6 104.484 11.6 104.488 11.6C104.493 11.6 104.498 11.6 104.503 11.6C104.507 11.6 104.512 11.6 104.517 11.6C104.522 11.6 104.526 11.6 104.531 11.6C104.536 11.6 104.541 11.6 104.545 11.6C104.55 11.6 104.555 11.6 104.56 11.6C104.564 11.6 104.569 11.6 104.574 11.6C104.578 11.6 104.583 11.6 104.588 11.6C104.593 11.6 104.597 11.6 104.602 11.6C104.607 11.6 104.612 11.6 104.616 11.6C104.621 11.6 104.626 11.6 104.631 11.6C104.635 11.6 104.64 11.6 104.645 11.6C104.65 11.6 104.654 11.6 104.659 11.6C104.664 11.6 104.668 11.6 104.673 11.6C104.678 11.6 104.683 11.6 104.687 11.6C104.692 11.6 104.697 11.6 104.702 11.6C104.706 11.6 104.711 11.6 104.716 11.6C104.721 11.6 104.725 11.6 104.73 11.6C104.735 11.6 104.74 11.6 104.744 11.6C104.749 11.6 104.754 11.6 104.758 11.6C104.763 11.6 104.768 11.6 104.773 11.6C104.777 11.6 104.782 11.6 104.787 11.6C104.792 11.6 104.796 11.6 104.801 11.6C104.806 11.6 104.811 11.6 104.815 11.6C104.82 11.6 104.825 11.6 104.83 11.6C104.834 11.6 104.839 11.6 104.844 11.6C104.849 11.6 104.853 11.6 104.858 11.6C104.863 11.6 104.867 11.6 104.872 11.6C104.877 11.6 104.882 11.6 104.886 11.6C104.891 11.6 104.896 11.6 104.901 11.6C104.905 11.6 104.91 11.6 104.915 11.6C104.92 11.6 104.924 11.6 104.929 11.6C104.934 11.6 104.939 11.6 104.943 11.6C104.948 11.6 104.953 11.6 104.958 11.6C104.962 11.6 104.967 11.6 104.972 11.6C104.977 11.6 104.981 11.6 104.986 11.6C104.991 11.6 104.995 11.6 105 11.6C105.005 11.6 105.01 11.6 105.014 11.6C105.019 11.6 105.024 11.6 105.029 11.6C105.033 11.6 105.038 11.6 105.043 11.6C105.048 11.6 105.052 11.6 105.057 11.6C105.062 11.6 105.067 11.6 105.071 11.6C105.076 11.6 105.081 11.6 105.086 11.6C105.09 11.6 105.095 11.6 105.1 11.6C105.105 11.6 105.109 11.6 105.114 11.6C105.119 11.6 105.123 11.6 105.128 11.6C105.133 11.6 105.138 11.6 105.142 11.6C105.147 11.6 105.152 11.6 105.157 11.6C105.161 11.6 105.166 11.6 105.171 11.6C105.176 11.6 105.18 11.6 105.185 11.6C105.19 11.6 105.195 11.6 105.199 11.6C105.204 11.6 105.209 11.6 105.214 11.6C105.218 11.6 105.223 11.6 105.228 11.6C105.233 11.6 105.237 11.6 105.242 11.6C105.247 11.6 105.252 11.6 105.256 11.6C105.261 11.6 105.266 11.6 105.271 11.6C105.275 11.6 105.28 11.6 105.285 11.6C105.289 11.6 105.294 11.6 105.299 11.6C105.304 11.6 105.308 11.6 105.313 11.6C105.318 11.6 105.323 11.6 105.327 11.6C105.332 11.6 105.337 11.6 105.342 11.6C105.346 11.6 105.351 11.6 105.356 11.6C105.361 11.6 105.365 11.6 105.37 11.6C105.375 11.6 105.38 11.6 105.384 11.6C105.389 11.6 105.394 11.6 105.399 11.6C105.403 11.6 105.408 11.6 105.413 11.6C105.418 11.6 105.422 11.6 105.427 11.6C105.432 11.6 105.437 11.6 105.441 11.6C105.446 11.6 105.451 11.6 105.456 11.6C105.46 11.6 105.465 11.6 105.47 11.6C105.475 11.6 105.479 11.6 105.484 11.6C105.489 11.6 105.493 11.6 105.498 11.6C105.503 11.6 105.508 11.6 105.512 11.6C105.517 11.6 105.522 11.6 105.527 11.6C105.531 11.6 105.536 11.6 105.541 11.6C105.546 11.6 105.55 11.6 105.555 11.6C105.56 11.6 105.565 11.6 105.569 11.6C105.574 11.6 105.579 11.6 105.584 11.6C105.588 11.6 105.593 11.6 105.598 11.6C105.603 11.6 105.607 11.6 105.612 11.6C105.617 11.6 105.622 11.6 105.626 11.6C105.631 11.6 105.636 11.6 105.641 11.6C105.645 11.6 105.65 11.6 105.655 11.6C105.66 11.6 105.664 11.6 105.669 11.6C105.674 11.6 105.679 11.6 105.683 11.6C105.688 11.6 105.693 11.6 105.698 11.6C105.702 11.6 105.707 11.6 105.712 11.6C105.717 11.6 105.721 11.6 105.726 11.6C105.731 11.6 105.736 11.6 105.74 11.6C105.745 11.6 105.75 11.6 105.755 11.6C105.759 11.6 105.764 11.6 105.769 11.6C105.774 11.6 105.778 11.6 105.783 11.6C105.788 11.6 105.793 11.6 105.797 11.6C105.802 11.6 105.807 11.6 105.812 11.6C105.816 11.6 105.821 11.6 105.826 11.6C105.831 11.6 105.835 11.6 105.84 11.6C105.845 11.6 105.85 11.6 105.854 11.6C105.859 11.6 105.864 11.6 105.868 11.6C105.873 11.6 105.878 11.6 105.883 11.6C105.887 11.6 105.892 11.6 105.897 11.6C105.902 11.6 105.906 11.6 105.911 11.6C105.916 11.6 105.921 11.6 105.925 11.6C105.93 11.6 105.935 11.6 105.94 11.6C105.944 11.6 105.949 11.6 105.954 11.6C105.959 11.6 105.963 11.6 105.968 11.6C105.973 11.6 105.978 11.6 105.982 11.6C105.987 11.6 105.992 11.6 105.997 11.6C106.001 11.6 106.006 11.6 106.011 11.6C106.016 11.6 106.02 11.6 106.025 11.6C106.03 11.6 106.035 11.6 106.039 11.6C106.044 11.6 106.049 11.6 106.054 11.6C106.058 11.6 106.063 11.6 106.068 11.6C106.073 11.6 106.077 11.6 106.082 11.6C106.087 11.6 106.092 11.6 106.096 11.6C106.101 11.6 106.106 11.6 106.111 11.6C106.115 11.6 106.12 11.6 106.125 11.6C106.13 11.6 106.134 11.6 106.139 11.6C106.144 11.6 106.149 11.6 106.153 11.6C106.158 11.6 106.163 11.6 106.168 11.6C106.172 11.6 106.177 11.6 106.182 11.6C106.187 11.6 106.191 11.6 106.196 11.6C106.201 11.6 106.206 11.6 106.21 11.6C106.215 11.6 106.22 11.6 106.225 11.6C106.229 11.6 106.234 11.6 106.239 11.6C106.244 11.6 106.249 11.6 106.253 11.6C106.258 11.6 106.263 11.6 106.268 11.6C106.272 11.6 106.277 11.6 106.282 11.6C106.287 11.6 106.291 11.6 106.296 11.6C106.301 11.6 106.306 11.6 106.31 11.6C106.315 11.6 106.32 11.6 106.325 11.6C106.329 11.6 106.334 11.6 106.339 11.6C106.344 11.6 106.348 11.6 106.353 11.6C106.358 11.6 106.363 11.6 106.367 11.6C106.372 11.6 106.377 11.6 106.382 11.6C106.386 11.6 106.391 11.6 106.396 11.6C106.401 11.6 106.405 11.6 106.41 11.6C106.415 11.6 106.42 11.6 106.424 11.6C106.429 11.6 106.434 11.6 106.439 11.6C106.443 11.6 106.448 11.6 106.453 11.6C106.458 11.6 106.462 11.6 106.467 11.6C106.472 11.6 106.477 11.6 106.481 11.6C106.486 11.6 106.491 11.6 106.496 11.6C106.5 11.6 106.505 11.6 106.51 11.6C106.515 11.6 106.519 11.6 106.524 11.6C106.529 11.6 106.534 11.6 106.538 11.6C106.543 11.6 106.548 11.6 106.553 11.6C106.557 11.6 106.562 11.6 106.567 11.6C106.572 11.6 106.576 11.6 106.581 11.6C106.586 11.6 106.591 11.6 106.595 11.6C106.6 11.6 106.605 11.6 106.61 11.6C106.614 11.6 106.619 11.6 106.624 11.6C106.629 11.6 106.633 11.6 106.638 11.6C106.643 11.6 106.648 11.6 106.653 11.6C106.657 11.6 106.662 11.6 106.667 11.6C106.672 11.6 106.676 11.6 106.681 11.6C106.686 11.6 106.691 11.6 106.695 11.6C106.7 11.6 106.705 11.6 106.71 11.6C106.714 11.6 106.719 11.6 106.724 11.6C106.729 11.6 106.733 11.6 106.738 11.6C106.743 11.6 106.748 11.6 106.752 11.6C106.757 11.6 106.762 11.6 106.767 11.6C106.771 11.6 106.776 11.6 106.781 11.6C106.786 11.6 106.79 11.6 106.795 11.6C106.8 11.6 106.805 11.6 106.809 11.6C106.814 11.6 106.819 11.6 106.824 11.6C106.828 11.6 106.833 11.6 106.838 11.6C106.843 11.6 106.847 11.6 106.852 11.6C106.857 11.6 106.862 11.6 106.866 11.6C106.871 11.6 106.876 11.6 106.881 11.6C106.886 11.6 106.89 11.6 106.895 11.6C106.9 11.6 106.905 11.6 106.909 11.6C106.914 11.6 106.919 11.6 106.924 11.6C106.928 11.6 106.933 11.6 106.938 11.6C106.943 11.6 106.947 11.6 106.952 11.6C106.957 11.6 106.962 11.6 106.966 11.6C106.971 11.6 106.976 11.6 106.981 11.6C106.985 11.6 106.99 11.6 106.995 11.6C107 11.6 107.004 11.6 107.009 11.6C107.014 11.6 107.019 11.6 107.023 11.6C107.028 11.6 107.033 11.6 107.038 11.6C107.042 11.6 107.047 11.6 107.052 11.6C107.057 11.6 107.062 11.6 107.066 11.6C107.071 11.6 107.076 11.6 107.081 11.6C107.085 11.6 107.09 11.6 107.095 11.6C107.1 11.6 107.104 11.6 107.109 11.6C107.114 11.6 107.119 11.6 107.123 11.6C107.128 11.6 107.133 11.6 107.138 11.6C107.142 11.6 107.147 11.6 107.152 11.6C107.157 11.6 107.161 11.6 107.166 11.6C107.171 11.6 107.176 11.6 107.18 11.6C107.185 11.6 107.19 11.6 107.195 11.6C107.199 11.6 107.204 11.6 107.209 11.6C107.214 11.6 107.219 11.6 107.223 11.6C107.228 11.6 107.233 11.6 107.238 11.6C107.242 11.6 107.247 11.6 107.252 11.6C107.257 11.6 107.261 11.6 107.266 11.6C107.271 11.6 107.276 11.6 107.28 11.6C107.285 11.6 107.29 11.6 107.295 11.6C107.299 11.6 107.304 11.6 107.309 11.6C107.314 11.6 107.318 11.6 107.323 11.6C107.328 11.6 107.333 11.6 107.337 11.6C107.342 11.6 107.347 11.6 107.352 11.6C107.357 11.6 107.361 11.6 107.366 11.6C107.371 11.6 107.376 11.6 107.38 11.6C107.385 11.6 107.39 11.6 107.395 11.6C107.399 11.6 107.404 11.6 107.409 11.6C107.414 11.6 107.418 11.6 107.423 11.6C107.428 11.6 107.433 11.6 107.437 11.6C107.442 11.6 107.447 11.6 107.452 11.6C107.456 11.6 107.461 11.6 107.466 11.6C107.471 11.6 107.476 11.6 107.48 11.6C107.485 11.6 107.49 11.6 107.495 11.6C107.499 11.6 107.504 11.6 107.509 11.6C107.514 11.6 107.518 11.6 107.523 11.6C107.528 11.6 107.533 11.6 107.537 11.6C107.542 11.6 107.547 11.6 107.552 11.6C107.556 11.6 107.561 11.6 107.566 11.6C107.571 11.6 107.575 11.6 107.58 11.6C107.585 11.6 107.59 11.6 107.594 11.6C107.599 11.6 107.604 11.6 107.609 11.6C107.614 11.6 107.618 11.6 107.623 11.6C107.628 11.6 107.633 11.6 107.637 11.6C107.642 11.6 107.647 11.6 107.652 11.6C107.656 11.6 107.661 11.6 107.666 11.6C107.671 11.6 107.675 11.6 107.68 11.6C107.685 11.6 107.69 11.6 107.694 11.6C107.699 11.6 107.704 11.6 107.709 11.6C107.714 11.6 107.718 11.6 107.723 11.6C107.728 11.6 107.733 11.6 107.737 11.6C107.742 11.6 107.747 11.6 107.752 11.6C107.756 11.6 107.761 11.6 107.766 11.6C107.771 11.6 107.775 11.6 107.78 11.6C107.785 11.6 107.79 11.6 107.794 11.6C107.799 11.6 107.804 11.6 107.809 11.6C107.813 11.6 107.818 11.6 107.823 11.6C107.828 11.6 107.833 11.6 107.837 11.6C107.842 11.6 107.847 11.6 107.852 11.6C107.856 11.6 107.861 11.6 107.866 11.6C107.871 11.6 107.875 11.6 107.88 11.6C107.885 11.6 107.89 11.6 107.894 11.6C107.899 11.6 107.904 11.6 107.909 11.6C107.913 11.6 107.918 11.6 107.923 11.6C107.928 11.6 107.933 11.6 107.937 11.6C107.942 11.6 107.947 11.6 107.952 11.6C107.956 11.6 107.961 11.6 107.966 11.6C107.971 11.6 107.975 11.6 107.98 11.6C107.985 11.6 107.99 11.6 107.994 11.6C107.999 11.6 108.004 11.6 108.009 11.6C108.014 11.6 108.018 11.6 108.023 11.6C108.028 11.6 108.033 11.6 108.037 11.6C108.042 11.6 108.047 11.6 108.052 11.6C108.056 11.6 108.061 11.6 108.066 11.6C108.071 11.6 108.075 11.6 108.08 11.6C108.085 11.6 108.09 11.6 108.094 11.6C108.099 11.6 108.104 11.6 108.109 11.6C108.114 11.6 108.118 11.6 108.123 11.6C108.128 11.6 108.133 11.6 108.137 11.6C108.142 11.6 108.147 11.6 108.152 11.6C108.156 11.6 108.161 11.6 108.166 11.6C108.171 11.6 108.175 11.6 108.18 11.6C108.185 11.6 108.19 11.6 108.194 11.6C108.199 11.6 108.204 11.6 108.209 11.6C108.214 11.6 108.218 11.6 108.223 11.6C108.228 11.6 108.233 11.6 108.237 11.6C108.242 11.6 108.247 11.6 108.252 11.6C108.256 11.6 108.261 11.6 108.266 11.6C108.271 11.6 108.275 11.6 108.28 11.6C108.285 11.6 108.29 11.6 108.295 11.6C108.299 11.6 108.304 11.6 108.309 11.6C108.314 11.6 108.318 11.6 108.323 11.6C108.328 11.6 108.333 11.6 108.337 11.6C108.342 11.6 108.347 11.6 108.352 11.6C108.356 11.6 108.361 11.6 108.366 11.6C108.371 11.6 108.376 11.6 108.38 11.6C108.385 11.6 108.39 11.6 108.395 11.6C108.399 11.6 108.404 11.6 108.409 11.6C108.414 11.6 108.418 11.6 108.423 11.6C108.428 11.6 108.433 11.6 108.437 11.6C108.442 11.6 108.447 11.6 108.452 11.6C108.457 11.6 108.461 11.6 108.466 11.6C108.471 11.6 108.476 11.6 108.48 11.6C108.485 11.6 108.49 11.6 108.495 11.6C108.499 11.6 108.504 11.6 108.509 11.6C108.514 11.6 108.518 11.6 108.523 11.6C108.528 11.6 108.533 11.6 108.538 11.6C108.542 11.6 108.547 11.6 108.552 11.6C108.557 11.6 108.561 11.6 108.566 11.6C108.571 11.6 108.576 11.6 108.58 11.6C108.585 11.6 108.59 11.6 108.595 11.6C108.599 11.6 108.604 11.6 108.609 11.6C108.614 11.6 108.619 11.6 108.623 11.6C108.628 11.6 108.633 11.6 108.638 11.6C108.642 11.6 108.647 11.6 108.652 11.6C108.657 11.6 108.661 11.6 108.666 11.6C108.671 11.6 108.676 11.6 108.68 11.6C108.685 11.6 108.69 11.6 108.695 11.6C108.7 11.6 108.704 11.6 108.709 11.6C108.714 11.6 108.719 11.6 108.723 11.6C108.728 11.6 108.733 11.6 108.738 11.6C108.742 11.6 108.747 11.6 108.752 11.6C108.757 11.6 108.761 11.6 108.766 11.6C108.771 11.6 108.776 11.6 108.781 11.6C108.785 11.6 108.79 11.6 108.795 11.6C108.8 11.6 108.804 11.6 108.809 11.6C108.814 11.6 108.819 11.6 108.823 11.6C108.828 11.6 108.833 11.6 108.838 11.6C108.842 11.6 108.847 11.6 108.852 11.6C108.857 11.6 108.862 11.6 108.866 11.6C108.871 11.6 108.876 11.6 108.881 11.6C108.885 11.6 108.89 11.6 108.895 11.6C108.9 11.6 108.904 11.6 108.909 11.6C108.914 11.6 108.919 11.6 108.924 11.6C108.928 11.6 108.933 11.6 108.938 11.6C108.943 11.6 108.947 11.6 108.952 11.6C108.957 11.6 108.962 11.6 108.966 11.6C108.971 11.6 108.976 11.6 108.981 11.6C108.985 11.6 108.99 11.6 108.995 11.6C109 11.6 109.005 11.6 109.009 11.6C109.014 11.6 109.019 11.6 109.024 11.6C109.028 11.6 109.033 11.6 109.038 11.6C109.043 11.6 109.047 11.6 109.052 11.6C109.057 11.6 109.062 11.6 109.066 11.6C109.071 11.6 109.076 11.6 109.081 11.6C109.086 11.6 109.09 11.6 109.095 11.6C109.1 11.6 109.105 11.6 109.109 11.6C109.114 11.6 109.119 11.6 109.124 11.6C109.128 11.6 109.133 11.6 109.138 11.6C109.143 11.6 109.148 11.6 109.152 11.6C109.157 11.6 109.162 11.6 109.167 11.6C109.171 11.6 109.176 11.6 109.181 11.6C109.186 11.6 109.19 11.6 109.195 11.6C109.2 11.6 109.205 11.6 109.21 11.6C109.214 11.6 109.219 11.6 109.224 11.6C109.229 11.6 109.233 11.6 109.238 11.6C109.243 11.6 109.248 11.6 109.252 11.6C109.257 11.6 109.262 11.6 109.267 11.6C109.271 11.6 109.276 11.6 109.281 11.6C109.286 11.6 109.291 11.6 109.295 11.6C109.3 11.6 109.305 11.6 109.31 11.6C109.314 11.6 109.319 11.6 109.324 11.6C109.329 11.6 109.333 11.6 109.338 11.6C109.343 11.6 109.348 11.6 109.353 11.6C109.357 11.6 109.362 11.6 109.367 11.6C109.372 11.6 109.376 11.6 109.381 11.6C109.386 11.6 109.391 11.6 109.395 11.6C109.4 11.6 109.405 11.6 109.41 11.6C109.414 11.6 109.419 11.6 109.424 11.6C109.429 11.6 109.434 11.6 109.438 11.6C109.443 11.6 109.448 11.6 109.453 11.6C109.457 11.6 109.462 11.6 109.467 11.6C109.472 11.6 109.476 11.6 109.481 11.6C109.486 11.6 109.491 11.6 109.496 11.6C109.5 11.6 109.505 11.6 109.51 11.6C109.515 11.6 109.519 11.6 109.524 11.6C109.529 11.6 109.534 11.6 109.538 11.6C109.543 11.6 109.548 11.6 109.553 11.6C109.558 11.6 109.562 11.6 109.567 11.6C109.572 11.6 109.577 11.6 109.581 11.6C109.586 11.6 109.591 11.6 109.596 11.6C109.6 11.6 109.605 11.6 109.61 11.6C109.615 11.6 109.62 11.6 109.624 11.6C109.629 11.6 109.634 11.6 109.639 11.6C109.643 11.6 109.648 11.6 109.653 11.6C109.658 11.6 109.662 11.6 109.667 11.6C109.672 11.6 109.677 11.6 109.681 11.6C109.686 11.6 109.691 11.6 109.696 11.6C109.701 11.6 109.705 11.6 109.71 11.6C109.715 11.6 109.72 11.6 109.724 11.6C109.729 11.6 109.734 11.6 109.739 11.6C109.743 11.6 109.748 11.6 109.753 11.6C109.758 11.6 109.763 11.6 109.767 11.6C109.772 11.6 109.777 11.6 109.782 11.6C109.786 11.6 109.791 11.6 109.796 11.6C109.801 11.6 109.805 11.6 109.81 11.6C109.815 11.6 109.82 11.6 109.825 11.6C109.829 11.6 109.834 11.6 109.839 11.6C109.844 11.6 109.848 11.6 109.853 11.6C109.858 11.6 109.863 11.6 109.867 11.6C109.872 11.6 109.877 11.6 109.882 11.6C109.887 11.6 109.891 11.6 109.896 11.6C109.901 11.6 109.906 11.6 109.91 11.6C109.915 11.6 109.92 11.6 109.925 11.6C109.929 11.6 109.934 11.6 109.939 11.6C109.944 11.6 109.949 11.6 109.953 11.6C109.958 11.6 109.963 11.6 109.968 11.6C109.972 11.6 109.977 11.6 109.982 11.6C109.987 11.6 109.991 11.6 109.996 11.6C110.001 11.6 110.006 11.6 110.011 11.6C110.015 11.6 110.02 11.6 110.025 11.6C110.03 11.6 110.034 11.6 110.039 11.6C110.044 11.6 110.049 11.6 110.053 11.6C110.058 11.6 110.063 11.6 110.068 11.6C110.073 11.6 110.077 11.6 110.082 11.6C110.087 11.6 110.092 11.6 110.096 11.6C110.101 11.6 110.106 11.6 110.111 11.6C110.115 11.6 110.12 11.6 110.125 11.6C110.13 11.6 110.135 11.6 110.139 11.6C110.144 11.6 110.149 11.6 110.154 11.6C110.158 11.6 110.163 11.6 110.168 11.6C110.173 11.6 110.177 11.6 110.182 11.6C110.187 11.6 110.192 11.6 110.197 11.6C110.201 11.6 110.206 11.6 110.211 11.6C110.216 11.6 110.22 11.6 110.225 11.6C110.23 11.6 110.235 11.6 110.239 11.6C110.244 11.6 110.249 11.6 110.254 11.6C110.259 11.6 110.263 11.6 110.268 11.6C110.273 11.6 110.278 11.6 110.282 11.6C110.287 11.6 110.292 11.6 110.297 11.6C110.301 11.6 110.306 11.6 110.311 11.6C110.316 11.6 110.321 11.6 110.325 11.6C110.33 11.6 110.335 11.6 110.34 11.6C110.344 11.6 110.349 11.6 110.354 11.6C110.359 11.6 110.363 11.6 110.368 11.6C110.373 11.6 110.378 11.6 110.383 11.6C110.387 11.6 110.392 11.6 110.397 11.6C110.402 11.6 110.406 11.6 110.411 11.6C110.416 11.6 110.421 11.6 110.425 11.6C110.43 11.6 110.435 11.6 110.44 11.6C110.445 11.6 110.449 11.6 110.454 11.6C110.459 11.6 110.464 11.6 110.468 11.6C110.473 11.6 110.478 11.6 110.483 11.6C110.487 11.6 110.492 11.6 110.497 11.6C110.502 11.6 110.507 11.6 110.511 11.6C110.516 11.6 110.521 11.6 110.526 11.6C110.53 11.6 110.535 11.6 110.54 11.6C110.545 11.6 110.549 11.6 110.554 11.6C110.559 11.6 110.564 11.6 110.569 11.6C110.573 11.6 110.578 11.6 110.583 11.6C110.588 11.6 110.592 11.6 110.597 11.6C110.602 11.6 110.607 11.6 110.611 11.6C110.616 11.6 110.621 11.6 110.626 11.6C110.631 11.6 110.635 11.6 110.64 11.6C110.645 11.6 110.65 11.6 110.654 11.6C110.659 11.6 110.664 11.6 110.669 11.6C110.673 11.6 110.678 11.6 110.683 11.6C110.688 11.6 110.693 11.6 110.697 11.6C110.702 11.6 110.707 11.6 110.712 11.6C110.716 11.6 110.721 11.6 110.726 11.6C110.731 11.6 110.735 11.6 110.74 11.6C110.745 11.6 110.75 11.6 110.755 11.6C110.759 11.6 110.764 11.6 110.769 11.6C110.774 11.6 110.778 11.6 110.783 11.6C110.788 11.6 110.793 11.6 110.797 11.6C110.802 11.6 110.807 11.6 110.812 11.6C110.817 11.6 110.821 11.6 110.826 11.6C110.831 11.6 110.836 11.6 110.84 11.6C110.845 11.6 110.85 11.6 110.855 11.6C110.859 11.6 110.864 11.6 110.869 11.6C110.874 11.6 110.879 11.6 110.883 11.6C110.888 11.6 110.893 11.6 110.898 11.6C110.902 11.6 110.907 11.6 110.912 11.6C110.917 11.6 110.921 11.6 110.926 11.6C110.931 11.6 110.936 11.6 110.941 11.6C110.945 11.6 110.95 11.6 110.955 11.6C110.96 11.6 110.964 11.6 110.969 11.6C110.974 11.6 110.979 11.6 110.983 11.6V9.6ZM102.679 10.6V26H104.679V10.6H102.679ZM103.679 27C103.684 27 103.689 27 103.694 27C103.699 27 103.703 27 103.708 27C103.713 27 103.718 27 103.722 27C103.727 27 103.732 27 103.737 27C103.741 27 103.746 27 103.751 27C103.756 27 103.761 27 103.765 27C103.77 27 103.775 27 103.78 27C103.784 27 103.789 27 103.794 27C103.799 27 103.803 27 103.808 27C103.813 27 103.818 27 103.823 27C103.827 27 103.832 27 103.837 27C103.842 27 103.846 27 103.851 27C103.856 27 103.861 27 103.865 27C103.87 27 103.875 27 103.88 27C103.884 27 103.889 27 103.894 27C103.899 27 103.904 27 103.908 27C103.913 27 103.918 27 103.923 27C103.927 27 103.932 27 103.937 27C103.942 27 103.946 27 103.951 27C103.956 27 103.961 27 103.966 27C103.97 27 103.975 27 103.98 27C103.985 27 103.989 27 103.994 27C103.999 27 104.004 27 104.008 27C104.013 27 104.018 27 104.023 27C104.027 27 104.032 27 104.037 27C104.042 27 104.047 27 104.051 27C104.056 27 104.061 27 104.066 27C104.07 27 104.075 27 104.08 27C104.085 27 104.089 27 104.094 27C104.099 27 104.104 27 104.108 27C104.113 27 104.118 27 104.123 27C104.128 27 104.132 27 104.137 27C104.142 27 104.147 27 104.151 27C104.156 27 104.161 27 104.166 27C104.17 27 104.175 27 104.18 27C104.185 27 104.189 27 104.194 27C104.199 27 104.204 27 104.209 27C104.213 27 104.218 27 104.223 27C104.228 27 104.232 27 104.237 27C104.242 27 104.247 27 104.251 27C104.256 27 104.261 27 104.266 27C104.27 27 104.275 27 104.28 27C104.285 27 104.29 27 104.294 27C104.299 27 104.304 27 104.309 27C104.313 27 104.318 27 104.323 27C104.328 27 104.332 27 104.337 27C104.342 27 104.347 27 104.351 27C104.356 27 104.361 27 104.366 27C104.37 27 104.375 27 104.38 27C104.385 27 104.39 27 104.394 27C104.399 27 104.404 27 104.409 27C104.413 27 104.418 27 104.423 27C104.428 27 104.432 27 104.437 27C104.442 27 104.447 27 104.451 27C104.456 27 104.461 27 104.466 27C104.47 27 104.475 27 104.48 27C104.485 27 104.49 27 104.494 27C104.499 27 104.504 27 104.509 27C104.513 27 104.518 27 104.523 27C104.528 27 104.532 27 104.537 27C104.542 27 104.547 27 104.551 27C104.556 27 104.561 27 104.566 27C104.57 27 104.575 27 104.58 27C104.585 27 104.59 27 104.594 27C104.599 27 104.604 27 104.609 27C104.613 27 104.618 27 104.623 27C104.628 27 104.632 27 104.637 27C104.642 27 104.647 27 104.651 27C104.656 27 104.661 27 104.666 27C104.67 27 104.675 27 104.68 27C104.685 27 104.689 27 104.694 27C104.699 27 104.704 27 104.708 27C104.713 27 104.718 27 104.723 27C104.728 27 104.732 27 104.737 27C104.742 27 104.747 27 104.751 27C104.756 27 104.761 27 104.766 27C104.77 27 104.775 27 104.78 27C104.785 27 104.789 27 104.794 27C104.799 27 104.804 27 104.808 27C104.813 27 104.818 27 104.823 27C104.827 27 104.832 27 104.837 27C104.842 27 104.846 27 104.851 27C104.856 27 104.861 27 104.866 27C104.87 27 104.875 27 104.88 27C104.885 27 104.889 27 104.894 27C104.899 27 104.904 27 104.908 27C104.913 27 104.918 27 104.923 27C104.927 27 104.932 27 104.937 27C104.942 27 104.946 27 104.951 27C104.956 27 104.961 27 104.965 27C104.97 27 104.975 27 104.98 27C104.984 27 104.989 27 104.994 27C104.999 27 105.003 27 105.008 27C105.013 27 105.018 27 105.023 27C105.027 27 105.032 27 105.037 27C105.042 27 105.046 27 105.051 27C105.056 27 105.061 27 105.065 27C105.07 27 105.075 27 105.08 27C105.084 27 105.089 27 105.094 27C105.099 27 105.103 27 105.108 27C105.113 27 105.118 27 105.122 27C105.127 27 105.132 27 105.137 27C105.141 27 105.146 27 105.151 27C105.156 27 105.16 27 105.165 27C105.17 27 105.175 27 105.179 27C105.184 27 105.189 27 105.194 27C105.198 27 105.203 27 105.208 27C105.213 27 105.217 27 105.222 27C105.227 27 105.232 27 105.237 27C105.241 27 105.246 27 105.251 27C105.256 27 105.26 27 105.265 27C105.27 27 105.275 27 105.279 27C105.284 27 105.289 27 105.294 27C105.298 27 105.303 27 105.308 27C105.313 27 105.317 27 105.322 27C105.327 27 105.332 27 105.336 27C105.341 27 105.346 27 105.351 27C105.355 27 105.36 27 105.365 27C105.37 27 105.374 27 105.379 27C105.384 27 105.389 27 105.393 27C105.398 27 105.403 27 105.408 27C105.412 27 105.417 27 105.422 27C105.427 27 105.431 27 105.436 27C105.441 27 105.446 27 105.45 27C105.455 27 105.46 27 105.465 27C105.469 27 105.474 27 105.479 27C105.484 27 105.489 27 105.493 27C105.498 27 105.503 27 105.508 27C105.512 27 105.517 27 105.522 27C105.527 27 105.531 27 105.536 27C105.541 27 105.546 27 105.55 27C105.555 27 105.56 27 105.565 27C105.569 27 105.574 27 105.579 27C105.584 27 105.588 27 105.593 27C105.598 27 105.603 27 105.607 27C105.612 27 105.617 27 105.622 27C105.626 27 105.631 27 105.636 27C105.641 27 105.645 27 105.65 27C105.655 27 105.66 27 105.664 27C105.669 27 105.674 27 105.679 27C105.683 27 105.688 27 105.693 27C105.698 27 105.702 27 105.707 27C105.712 27 105.717 27 105.721 27C105.726 27 105.731 27 105.736 27C105.74 27 105.745 27 105.75 27C105.755 27 105.759 27 105.764 27C105.769 27 105.774 27 105.778 27C105.783 27 105.788 27 105.793 27C105.797 27 105.802 27 105.807 27C105.812 27 105.816 27 105.821 27C105.826 27 105.831 27 105.835 27C105.84 27 105.845 27 105.85 27C105.854 27 105.859 27 105.864 27C105.869 27 105.873 27 105.878 27C105.883 27 105.888 27 105.892 27C105.897 27 105.902 27 105.907 27C105.911 27 105.916 27 105.921 27C105.926 27 105.93 27 105.935 27C105.94 27 105.945 27 105.949 27C105.954 27 105.959 27 105.964 27C105.968 27 105.973 27 105.978 27C105.983 27 105.987 27 105.992 27C105.997 27 106.002 27 106.006 27C106.011 27 106.016 27 106.021 27C106.025 27 106.03 27 106.035 27C106.04 27 106.044 27 106.049 27C106.054 27 106.059 27 106.063 27C106.068 27 106.073 27 106.078 27C106.082 27 106.087 27 106.092 27C106.097 27 106.102 27 106.106 27C106.111 27 106.116 27 106.12 27C106.125 27 106.13 27 106.135 27C106.14 27 106.144 27 106.149 27C106.154 27 106.159 27 106.163 27C106.168 27 106.173 27 106.178 27C106.182 27 106.187 27 106.192 27C106.197 27 106.201 27 106.206 27C106.211 27 106.216 27 106.22 27C106.225 27 106.23 27 106.235 27C106.239 27 106.244 27 106.249 27C106.254 27 106.258 27 106.263 27C106.268 27 106.273 27 106.277 27C106.282 27 106.287 27 106.292 27C106.296 27 106.301 27 106.306 27C106.311 27 106.315 27 106.32 27C106.325 27 106.329 27 106.334 27C106.339 27 106.344 27 106.349 27C106.353 27 106.358 27 106.363 27C106.368 27 106.372 27 106.377 27C106.382 27 106.386 27 106.391 27C106.396 27 106.401 27 106.405 27C106.41 27 106.415 27 106.42 27C106.424 27 106.429 27 106.434 27C106.439 27 106.443 27 106.448 27C106.453 27 106.458 27 106.462 27C106.467 27 106.472 27 106.477 27C106.481 27 106.486 27 106.491 27C106.496 27 106.5 27 106.505 27C106.51 27 106.515 27 106.519 27C106.524 27 106.529 27 106.534 27C106.538 27 106.543 27 106.548 27C106.553 27 106.557 27 106.562 27C106.567 27 106.572 27 106.576 27C106.581 27 106.586 27 106.591 27C106.595 27 106.6 27 106.605 27C106.61 27 106.614 27 106.619 27C106.624 27 106.629 27 106.633 27C106.638 27 106.643 27 106.648 27C106.652 27 106.657 27 106.662 27C106.667 27 106.671 27 106.676 27C106.681 27 106.686 27 106.69 27C106.695 27 106.7 27 106.705 27C106.709 27 106.714 27 106.719 27C106.724 27 106.728 27 106.733 27C106.738 27 106.743 27 106.747 27C106.752 27 106.757 27 106.762 27C106.766 27 106.771 27 106.776 27C106.781 27 106.785 27 106.79 27C106.795 27 106.8 27 106.804 27C106.809 27 106.814 27 106.819 27C106.823 27 106.828 27 106.833 27C106.838 27 106.842 27 106.847 27C106.852 27 106.857 27 106.861 27C106.866 27 106.871 27 106.876 27C106.88 27 106.885 27 106.89 27C106.895 27 106.899 27 106.904 27C106.909 27 106.914 27 106.918 27C106.923 27 106.928 27 106.933 27C106.937 27 106.942 27 106.947 27C106.952 27 106.956 27 106.961 27C106.966 27 106.971 27 106.975 27C106.98 27 106.985 27 106.99 27C106.994 27 106.999 27 107.004 27C107.009 27 107.013 27 107.018 27C107.023 27 107.028 27 107.032 27C107.037 27 107.042 27 107.047 27C107.051 27 107.056 27 107.061 27C107.066 27 107.07 27 107.075 27C107.08 27 107.085 27 107.089 27C107.094 27 107.099 27 107.104 27C107.108 27 107.113 27 107.118 27C107.123 27 107.127 27 107.132 27C107.137 27 107.142 27 107.146 27C107.151 27 107.156 27 107.161 27C107.165 27 107.17 27 107.175 27C107.18 27 107.184 27 107.189 27C107.194 27 107.199 27 107.203 27C107.208 27 107.213 27 107.217 27C107.222 27 107.227 27 107.232 27C107.236 27 107.241 27 107.246 27C107.251 27 107.255 27 107.26 27C107.265 27 107.27 27 107.274 27C107.279 27 107.284 27 107.289 27C107.293 27 107.298 27 107.303 27C107.308 27 107.312 27 107.317 27C107.322 27 107.327 27 107.331 27C107.336 27 107.341 27 107.346 27C107.35 27 107.355 27 107.36 27C107.365 27 107.369 27 107.374 27C107.379 27 107.384 27 107.388 27C107.393 27 107.398 27 107.403 27C107.407 27 107.412 27 107.417 27C107.422 27 107.426 27 107.431 27C107.436 27 107.441 27 107.445 27C107.45 27 107.455 27 107.46 27C107.464 27 107.469 27 107.474 27C107.479 27 107.483 27 107.488 27C107.493 27 107.498 27 107.502 27C107.507 27 107.512 27 107.517 27C107.521 27 107.526 27 107.531 27C107.536 27 107.54 27 107.545 27C107.55 27 107.555 27 107.559 27C107.564 27 107.569 27 107.574 27C107.578 27 107.583 27 107.588 27C107.593 27 107.597 27 107.602 27C107.607 27 107.612 27 107.616 27C107.621 27 107.626 27 107.631 27C107.635 27 107.64 27 107.645 27C107.65 27 107.654 27 107.659 27C107.664 27 107.669 27 107.673 27C107.678 27 107.683 27 107.688 27C107.692 27 107.697 27 107.702 27C107.707 27 107.711 27 107.716 27C107.721 27 107.726 27 107.73 27C107.735 27 107.74 27 107.745 27C107.749 27 107.754 27 107.759 27C107.764 27 107.768 27 107.773 27C107.778 27 107.783 27 107.787 27C107.792 27 107.797 27 107.802 27C107.806 27 107.811 27 107.816 27C107.821 27 107.825 27 107.83 27C107.835 27 107.84 27 107.844 27C107.849 27 107.854 27 107.859 27C107.863 27 107.868 27 107.873 27C107.877 27 107.882 27 107.887 27C107.892 27 107.896 27 107.901 27C107.906 27 107.911 27 107.915 27C107.92 27 107.925 27 107.93 27C107.934 27 107.939 27 107.944 27C107.949 27 107.953 27 107.958 27C107.963 27 107.968 27 107.972 27C107.977 27 107.982 27 107.987 27C107.991 27 107.996 27 108.001 27C108.006 27 108.01 27 108.015 27C108.02 27 108.025 27 108.029 27C108.034 27 108.039 27 108.044 27C108.048 27 108.053 27 108.058 27C108.063 27 108.067 27 108.072 27C108.077 27 108.082 27 108.086 27C108.091 27 108.096 27 108.101 27C108.105 27 108.11 27 108.115 27C108.12 27 108.124 27 108.129 27C108.134 27 108.139 27 108.143 27C108.148 27 108.153 27 108.158 27C108.162 27 108.167 27 108.172 27C108.177 27 108.181 27 108.186 27C108.191 27 108.196 27 108.2 27C108.205 27 108.21 27 108.215 27C108.219 27 108.224 27 108.229 27C108.234 27 108.238 27 108.243 27C108.248 27 108.253 27 108.257 27C108.262 27 108.267 27 108.272 27C108.276 27 108.281 27 108.286 27C108.291 27 108.295 27 108.3 27C108.305 27 108.31 27 108.314 27C108.319 27 108.324 27 108.329 27C108.333 27 108.338 27 108.343 27C108.348 27 108.352 27 108.357 27C108.362 27 108.367 27 108.371 27C108.376 27 108.381 27 108.386 27C108.39 27 108.395 27 108.4 27C108.405 27 108.409 27 108.414 27C108.419 27 108.424 27 108.428 27C108.433 27 108.438 27 108.443 27C108.447 27 108.452 27 108.457 27C108.462 27 108.466 27 108.471 27C108.476 27 108.481 27 108.485 27C108.49 27 108.495 27 108.5 27C108.504 27 108.509 27 108.514 27C108.519 27 108.523 27 108.528 27C108.533 27 108.538 27 108.542 27C108.547 27 108.552 27 108.557 27C108.561 27 108.566 27 108.571 27C108.576 27 108.58 27 108.585 27C108.59 27 108.595 27 108.599 27C108.604 27 108.609 27 108.614 27C108.618 27 108.623 27 108.628 27C108.633 27 108.637 27 108.642 27C108.647 27 108.652 27 108.656 27C108.661 27 108.666 27 108.671 27C108.675 27 108.68 27 108.685 27C108.69 27 108.694 27 108.699 27C108.704 27 108.709 27 108.713 27C108.718 27 108.723 27 108.728 27C108.732 27 108.737 27 108.742 27C108.747 27 108.751 27 108.756 27C108.761 27 108.766 27 108.77 27C108.775 27 108.78 27 108.785 27C108.789 27 108.794 27 108.799 27C108.804 27 108.808 27 108.813 27C108.818 27 108.823 27 108.827 27C108.832 27 108.837 27 108.842 27C108.846 27 108.851 27 108.856 27C108.861 27 108.865 27 108.87 27C108.875 27 108.88 27 108.884 27C108.889 27 108.894 27 108.899 27C108.903 27 108.908 27 108.913 27C108.918 27 108.923 27 108.927 27C108.932 27 108.937 27 108.942 27C108.946 27 108.951 27 108.956 27C108.961 27 108.965 27 108.97 27C108.975 27 108.98 27 108.984 27C108.989 27 108.994 27 108.999 27C109.003 27 109.008 27 109.013 27C109.018 27 109.022 27 109.027 27C109.032 27 109.037 27 109.041 27C109.046 27 109.051 27 109.056 27C109.06 27 109.065 27 109.07 27C109.075 27 109.079 27 109.084 27C109.089 27 109.094 27 109.098 27C109.103 27 109.108 27 109.113 27C109.117 27 109.122 27 109.127 27C109.132 27 109.136 27 109.141 27C109.146 27 109.151 27 109.155 27C109.16 27 109.165 27 109.17 27C109.174 27 109.179 27 109.184 27C109.189 27 109.193 27 109.198 27C109.203 27 109.208 27 109.212 27C109.217 27 109.222 27 109.227 27C109.231 27 109.236 27 109.241 27C109.246 27 109.25 27 109.255 27C109.26 27 109.265 27 109.269 27C109.274 27 109.279 27 109.284 27C109.288 27 109.293 27 109.298 27C109.303 27 109.308 27 109.312 27C109.317 27 109.322 27 109.327 27C109.331 27 109.336 27 109.341 27C109.346 27 109.35 27 109.355 27C109.36 27 109.365 27 109.369 27C109.374 27 109.379 27 109.384 27C109.388 27 109.393 27 109.398 27C109.403 27 109.407 27 109.412 27C109.417 27 109.422 27 109.426 27C109.431 27 109.436 27 109.441 27C109.445 27 109.45 27 109.455 27C109.46 27 109.464 27 109.469 27C109.474 27 109.479 27 109.483 27C109.488 27 109.493 27 109.498 27C109.502 27 109.507 27 109.512 27C109.517 27 109.521 27 109.526 27C109.531 27 109.536 27 109.541 27C109.545 27 109.55 27 109.555 27C109.56 27 109.564 27 109.569 27C109.574 27 109.579 27 109.583 27C109.588 27 109.593 27 109.598 27C109.602 27 109.607 27 109.612 27C109.617 27 109.621 27 109.626 27C109.631 27 109.636 27 109.64 27C109.645 27 109.65 27 109.655 27C109.659 27 109.664 27 109.669 27C109.674 27 109.678 27 109.683 27C109.688 27 109.693 27 109.697 27C109.702 27 109.707 27 109.712 27C109.717 27 109.721 27 109.726 27C109.731 27 109.736 27 109.74 27C109.745 27 109.75 27 109.755 27C109.759 27 109.764 27 109.769 27C109.774 27 109.778 27 109.783 27C109.788 27 109.793 27 109.797 27C109.802 27 109.807 27 109.812 27C109.816 27 109.821 27 109.826 27C109.831 27 109.835 27 109.84 27C109.845 27 109.85 27 109.854 27C109.859 27 109.864 27 109.869 27C109.874 27 109.878 27 109.883 27C109.888 27 109.893 27 109.897 27C109.902 27 109.907 27 109.912 27C109.916 27 109.921 27 109.926 27C109.931 27 109.935 27 109.94 27C109.945 27 109.95 27 109.954 27C109.959 27 109.964 27 109.969 27C109.973 27 109.978 27 109.983 27C109.988 27 109.992 27 109.997 27C110.002 27 110.007 27 110.012 27C110.016 27 110.021 27 110.026 27C110.031 27 110.035 27 110.04 27C110.045 27 110.05 27 110.054 27C110.059 27 110.064 27 110.069 27C110.073 27 110.078 27 110.083 27C110.088 27 110.092 27 110.097 27C110.102 27 110.107 27 110.111 27C110.116 27 110.121 27 110.126 27C110.131 27 110.135 27 110.14 27C110.145 27 110.15 27 110.154 27C110.159 27 110.164 27 110.169 27C110.173 27 110.178 27 110.183 27C110.188 27 110.192 27 110.197 27C110.202 27 110.207 27 110.211 27C110.216 27 110.221 27 110.226 27C110.231 27 110.235 27 110.24 27C110.245 27 110.25 27 110.254 27C110.259 27 110.264 27 110.269 27C110.273 27 110.278 27 110.283 27C110.288 27 110.292 27 110.297 27C110.302 27 110.307 27 110.311 27C110.316 27 110.321 27 110.326 27C110.331 27 110.335 27 110.34 27C110.345 27 110.35 27 110.354 27C110.359 27 110.364 27 110.369 27C110.373 27 110.378 27 110.383 27C110.388 27 110.392 27 110.397 27C110.402 27 110.407 27 110.411 27C110.416 27 110.421 27 110.426 27C110.431 27 110.435 27 110.44 27C110.445 27 110.45 27 110.454 27C110.459 27 110.464 27 110.469 27C110.473 27 110.478 27 110.483 27C110.488 27 110.492 27 110.497 27C110.502 27 110.507 27 110.512 27C110.516 27 110.521 27 110.526 27C110.531 27 110.535 27 110.54 27C110.545 27 110.55 27 110.554 27C110.559 27 110.564 27 110.569 27C110.573 27 110.578 27 110.583 27C110.588 27 110.593 27 110.597 27C110.602 27 110.607 27 110.612 27C110.616 27 110.621 27 110.626 27C110.631 27 110.635 27 110.64 27C110.645 27 110.65 27 110.654 27C110.659 27 110.664 27 110.669 27C110.674 27 110.678 27 110.683 27C110.688 27 110.693 27 110.697 27C110.702 27 110.707 27 110.712 27C110.716 27 110.721 27 110.726 27C110.731 27 110.736 27 110.74 27C110.745 27 110.75 27 110.755 27C110.759 27 110.764 27 110.769 27C110.774 27 110.778 27 110.783 27C110.788 27 110.793 27 110.797 27C110.802 27 110.807 27 110.812 27C110.817 27 110.821 27 110.826 27C110.831 27 110.836 27 110.84 27C110.845 27 110.85 27 110.855 27C110.859 27 110.864 27 110.869 27C110.874 27 110.879 27 110.883 27C110.888 27 110.893 27 110.898 27C110.902 27 110.907 27 110.912 27C110.917 27 110.921 27 110.926 27C110.931 27 110.936 27 110.941 27C110.945 27 110.95 27 110.955 27C110.96 27 110.964 27 110.969 27C110.974 27 110.979 27 110.983 27V25C110.979 25 110.974 25 110.969 25C110.964 25 110.96 25 110.955 25C110.95 25 110.945 25 110.941 25C110.936 25 110.931 25 110.926 25C110.921 25 110.917 25 110.912 25C110.907 25 110.902 25 110.898 25C110.893 25 110.888 25 110.883 25C110.879 25 110.874 25 110.869 25C110.864 25 110.859 25 110.855 25C110.85 25 110.845 25 110.84 25C110.836 25 110.831 25 110.826 25C110.821 25 110.817 25 110.812 25C110.807 25 110.802 25 110.797 25C110.793 25 110.788 25 110.783 25C110.778 25 110.774 25 110.769 25C110.764 25 110.759 25 110.755 25C110.75 25 110.745 25 110.74 25C110.736 25 110.731 25 110.726 25C110.721 25 110.716 25 110.712 25C110.707 25 110.702 25 110.697 25C110.693 25 110.688 25 110.683 25C110.678 25 110.674 25 110.669 25C110.664 25 110.659 25 110.654 25C110.65 25 110.645 25 110.64 25C110.635 25 110.631 25 110.626 25C110.621 25 110.616 25 110.612 25C110.607 25 110.602 25 110.597 25C110.593 25 110.588 25 110.583 25C110.578 25 110.573 25 110.569 25C110.564 25 110.559 25 110.554 25C110.55 25 110.545 25 110.54 25C110.535 25 110.531 25 110.526 25C110.521 25 110.516 25 110.512 25C110.507 25 110.502 25 110.497 25C110.492 25 110.488 25 110.483 25C110.478 25 110.473 25 110.469 25C110.464 25 110.459 25 110.454 25C110.45 25 110.445 25 110.44 25C110.435 25 110.431 25 110.426 25C110.421 25 110.416 25 110.411 25C110.407 25 110.402 25 110.397 25C110.392 25 110.388 25 110.383 25C110.378 25 110.373 25 110.369 25C110.364 25 110.359 25 110.354 25C110.35 25 110.345 25 110.34 25C110.335 25 110.331 25 110.326 25C110.321 25 110.316 25 110.311 25C110.307 25 110.302 25 110.297 25C110.292 25 110.288 25 110.283 25C110.278 25 110.273 25 110.269 25C110.264 25 110.259 25 110.254 25C110.25 25 110.245 25 110.24 25C110.235 25 110.231 25 110.226 25C110.221 25 110.216 25 110.211 25C110.207 25 110.202 25 110.197 25C110.192 25 110.188 25 110.183 25C110.178 25 110.173 25 110.169 25C110.164 25 110.159 25 110.154 25C110.15 25 110.145 25 110.14 25C110.135 25 110.131 25 110.126 25C110.121 25 110.116 25 110.111 25C110.107 25 110.102 25 110.097 25C110.092 25 110.088 25 110.083 25C110.078 25 110.073 25 110.069 25C110.064 25 110.059 25 110.054 25C110.05 25 110.045 25 110.04 25C110.035 25 110.031 25 110.026 25C110.021 25 110.016 25 110.012 25C110.007 25 110.002 25 109.997 25C109.992 25 109.988 25 109.983 25C109.978 25 109.973 25 109.969 25C109.964 25 109.959 25 109.954 25C109.95 25 109.945 25 109.94 25C109.935 25 109.931 25 109.926 25C109.921 25 109.916 25 109.912 25C109.907 25 109.902 25 109.897 25C109.893 25 109.888 25 109.883 25C109.878 25 109.874 25 109.869 25C109.864 25 109.859 25 109.854 25C109.85 25 109.845 25 109.84 25C109.835 25 109.831 25 109.826 25C109.821 25 109.816 25 109.812 25C109.807 25 109.802 25 109.797 25C109.793 25 109.788 25 109.783 25C109.778 25 109.774 25 109.769 25C109.764 25 109.759 25 109.755 25C109.75 25 109.745 25 109.74 25C109.736 25 109.731 25 109.726 25C109.721 25 109.717 25 109.712 25C109.707 25 109.702 25 109.697 25C109.693 25 109.688 25 109.683 25C109.678 25 109.674 25 109.669 25C109.664 25 109.659 25 109.655 25C109.65 25 109.645 25 109.64 25C109.636 25 109.631 25 109.626 25C109.621 25 109.617 25 109.612 25C109.607 25 109.602 25 109.598 25C109.593 25 109.588 25 109.583 25C109.579 25 109.574 25 109.569 25C109.564 25 109.56 25 109.555 25C109.55 25 109.545 25 109.541 25C109.536 25 109.531 25 109.526 25C109.521 25 109.517 25 109.512 25C109.507 25 109.502 25 109.498 25C109.493 25 109.488 25 109.483 25C109.479 25 109.474 25 109.469 25C109.464 25 109.46 25 109.455 25C109.45 25 109.445 25 109.441 25C109.436 25 109.431 25 109.426 25C109.422 25 109.417 25 109.412 25C109.407 25 109.403 25 109.398 25C109.393 25 109.388 25 109.384 25C109.379 25 109.374 25 109.369 25C109.365 25 109.36 25 109.355 25C109.35 25 109.346 25 109.341 25C109.336 25 109.331 25 109.327 25C109.322 25 109.317 25 109.312 25C109.308 25 109.303 25 109.298 25C109.293 25 109.288 25 109.284 25C109.279 25 109.274 25 109.269 25C109.265 25 109.26 25 109.255 25C109.25 25 109.246 25 109.241 25C109.236 25 109.231 25 109.227 25C109.222 25 109.217 25 109.212 25C109.208 25 109.203 25 109.198 25C109.193 25 109.189 25 109.184 25C109.179 25 109.174 25 109.17 25C109.165 25 109.16 25 109.155 25C109.151 25 109.146 25 109.141 25C109.136 25 109.132 25 109.127 25C109.122 25 109.117 25 109.113 25C109.108 25 109.103 25 109.098 25C109.094 25 109.089 25 109.084 25C109.079 25 109.075 25 109.07 25C109.065 25 109.06 25 109.056 25C109.051 25 109.046 25 109.041 25C109.037 25 109.032 25 109.027 25C109.022 25 109.018 25 109.013 25C109.008 25 109.003 25 108.999 25C108.994 25 108.989 25 108.984 25C108.98 25 108.975 25 108.97 25C108.965 25 108.961 25 108.956 25C108.951 25 108.946 25 108.942 25C108.937 25 108.932 25 108.927 25C108.923 25 108.918 25 108.913 25C108.908 25 108.903 25 108.899 25C108.894 25 108.889 25 108.884 25C108.88 25 108.875 25 108.87 25C108.865 25 108.861 25 108.856 25C108.851 25 108.846 25 108.842 25C108.837 25 108.832 25 108.827 25C108.823 25 108.818 25 108.813 25C108.808 25 108.804 25 108.799 25C108.794 25 108.789 25 108.785 25C108.78 25 108.775 25 108.77 25C108.766 25 108.761 25 108.756 25C108.751 25 108.747 25 108.742 25C108.737 25 108.732 25 108.728 25C108.723 25 108.718 25 108.713 25C108.709 25 108.704 25 108.699 25C108.694 25 108.69 25 108.685 25C108.68 25 108.675 25 108.671 25C108.666 25 108.661 25 108.656 25C108.652 25 108.647 25 108.642 25C108.637 25 108.633 25 108.628 25C108.623 25 108.618 25 108.614 25C108.609 25 108.604 25 108.599 25C108.595 25 108.59 25 108.585 25C108.58 25 108.576 25 108.571 25C108.566 25 108.561 25 108.557 25C108.552 25 108.547 25 108.542 25C108.538 25 108.533 25 108.528 25C108.523 25 108.519 25 108.514 25C108.509 25 108.504 25 108.5 25C108.495 25 108.49 25 108.485 25C108.481 25 108.476 25 108.471 25C108.466 25 108.462 25 108.457 25C108.452 25 108.447 25 108.443 25C108.438 25 108.433 25 108.428 25C108.424 25 108.419 25 108.414 25C108.409 25 108.405 25 108.4 25C108.395 25 108.39 25 108.386 25C108.381 25 108.376 25 108.371 25C108.367 25 108.362 25 108.357 25C108.352 25 108.348 25 108.343 25C108.338 25 108.333 25 108.329 25C108.324 25 108.319 25 108.314 25C108.31 25 108.305 25 108.3 25C108.295 25 108.291 25 108.286 25C108.281 25 108.276 25 108.272 25C108.267 25 108.262 25 108.257 25C108.253 25 108.248 25 108.243 25C108.238 25 108.234 25 108.229 25C108.224 25 108.219 25 108.215 25C108.21 25 108.205 25 108.2 25C108.196 25 108.191 25 108.186 25C108.181 25 108.177 25 108.172 25C108.167 25 108.162 25 108.158 25C108.153 25 108.148 25 108.143 25C108.139 25 108.134 25 108.129 25C108.124 25 108.12 25 108.115 25C108.11 25 108.105 25 108.101 25C108.096 25 108.091 25 108.086 25C108.082 25 108.077 25 108.072 25C108.067 25 108.063 25 108.058 25C108.053 25 108.048 25 108.044 25C108.039 25 108.034 25 108.029 25C108.025 25 108.02 25 108.015 25C108.01 25 108.006 25 108.001 25C107.996 25 107.991 25 107.987 25C107.982 25 107.977 25 107.972 25C107.968 25 107.963 25 107.958 25C107.953 25 107.949 25 107.944 25C107.939 25 107.934 25 107.93 25C107.925 25 107.92 25 107.915 25C107.911 25 107.906 25 107.901 25C107.896 25 107.892 25 107.887 25C107.882 25 107.877 25 107.873 25C107.868 25 107.863 25 107.859 25C107.854 25 107.849 25 107.844 25C107.84 25 107.835 25 107.83 25C107.825 25 107.821 25 107.816 25C107.811 25 107.806 25 107.802 25C107.797 25 107.792 25 107.787 25C107.783 25 107.778 25 107.773 25C107.768 25 107.764 25 107.759 25C107.754 25 107.749 25 107.745 25C107.74 25 107.735 25 107.73 25C107.726 25 107.721 25 107.716 25C107.711 25 107.707 25 107.702 25C107.697 25 107.692 25 107.688 25C107.683 25 107.678 25 107.673 25C107.669 25 107.664 25 107.659 25C107.654 25 107.65 25 107.645 25C107.64 25 107.635 25 107.631 25C107.626 25 107.621 25 107.616 25C107.612 25 107.607 25 107.602 25C107.597 25 107.593 25 107.588 25C107.583 25 107.578 25 107.574 25C107.569 25 107.564 25 107.559 25C107.555 25 107.55 25 107.545 25C107.54 25 107.536 25 107.531 25C107.526 25 107.521 25 107.517 25C107.512 25 107.507 25 107.502 25C107.498 25 107.493 25 107.488 25C107.483 25 107.479 25 107.474 25C107.469 25 107.464 25 107.46 25C107.455 25 107.45 25 107.445 25C107.441 25 107.436 25 107.431 25C107.426 25 107.422 25 107.417 25C107.412 25 107.407 25 107.403 25C107.398 25 107.393 25 107.388 25C107.384 25 107.379 25 107.374 25C107.369 25 107.365 25 107.36 25C107.355 25 107.35 25 107.346 25C107.341 25 107.336 25 107.331 25C107.327 25 107.322 25 107.317 25C107.312 25 107.308 25 107.303 25C107.298 25 107.293 25 107.289 25C107.284 25 107.279 25 107.274 25C107.27 25 107.265 25 107.26 25C107.255 25 107.251 25 107.246 25C107.241 25 107.236 25 107.232 25C107.227 25 107.222 25 107.217 25C107.213 25 107.208 25 107.203 25C107.199 25 107.194 25 107.189 25C107.184 25 107.18 25 107.175 25C107.17 25 107.165 25 107.161 25C107.156 25 107.151 25 107.146 25C107.142 25 107.137 25 107.132 25C107.127 25 107.123 25 107.118 25C107.113 25 107.108 25 107.104 25C107.099 25 107.094 25 107.089 25C107.085 25 107.08 25 107.075 25C107.07 25 107.066 25 107.061 25C107.056 25 107.051 25 107.047 25C107.042 25 107.037 25 107.032 25C107.028 25 107.023 25 107.018 25C107.013 25 107.009 25 107.004 25C106.999 25 106.994 25 106.99 25C106.985 25 106.98 25 106.975 25C106.971 25 106.966 25 106.961 25C106.956 25 106.952 25 106.947 25C106.942 25 106.937 25 106.933 25C106.928 25 106.923 25 106.918 25C106.914 25 106.909 25 106.904 25C106.899 25 106.895 25 106.89 25C106.885 25 106.88 25 106.876 25C106.871 25 106.866 25 106.861 25C106.857 25 106.852 25 106.847 25C106.842 25 106.838 25 106.833 25C106.828 25 106.823 25 106.819 25C106.814 25 106.809 25 106.804 25C106.8 25 106.795 25 106.79 25C106.785 25 106.781 25 106.776 25C106.771 25 106.766 25 106.762 25C106.757 25 106.752 25 106.747 25C106.743 25 106.738 25 106.733 25C106.728 25 106.724 25 106.719 25C106.714 25 106.709 25 106.705 25C106.7 25 106.695 25 106.69 25C106.686 25 106.681 25 106.676 25C106.671 25 106.667 25 106.662 25C106.657 25 106.652 25 106.648 25C106.643 25 106.638 25 106.633 25C106.629 25 106.624 25 106.619 25C106.614 25 106.61 25 106.605 25C106.6 25 106.595 25 106.591 25C106.586 25 106.581 25 106.576 25C106.572 25 106.567 25 106.562 25C106.557 25 106.553 25 106.548 25C106.543 25 106.538 25 106.534 25C106.529 25 106.524 25 106.519 25C106.515 25 106.51 25 106.505 25C106.5 25 106.496 25 106.491 25C106.486 25 106.481 25 106.477 25C106.472 25 106.467 25 106.462 25C106.458 25 106.453 25 106.448 25C106.443 25 106.439 25 106.434 25C106.429 25 106.424 25 106.42 25C106.415 25 106.41 25 106.405 25C106.401 25 106.396 25 106.391 25C106.386 25 106.382 25 106.377 25C106.372 25 106.368 25 106.363 25C106.358 25 106.353 25 106.349 25C106.344 25 106.339 25 106.334 25C106.329 25 106.325 25 106.32 25C106.315 25 106.311 25 106.306 25C106.301 25 106.296 25 106.292 25C106.287 25 106.282 25 106.277 25C106.273 25 106.268 25 106.263 25C106.258 25 106.254 25 106.249 25C106.244 25 106.239 25 106.235 25C106.23 25 106.225 25 106.22 25C106.216 25 106.211 25 106.206 25C106.201 25 106.197 25 106.192 25C106.187 25 106.182 25 106.178 25C106.173 25 106.168 25 106.163 25C106.159 25 106.154 25 106.149 25C106.144 25 106.14 25 106.135 25C106.13 25 106.125 25 106.12 25C106.116 25 106.111 25 106.106 25C106.102 25 106.097 25 106.092 25C106.087 25 106.082 25 106.078 25C106.073 25 106.068 25 106.063 25C106.059 25 106.054 25 106.049 25C106.044 25 106.04 25 106.035 25C106.03 25 106.025 25 106.021 25C106.016 25 106.011 25 106.006 25C106.002 25 105.997 25 105.992 25C105.987 25 105.983 25 105.978 25C105.973 25 105.968 25 105.964 25C105.959 25 105.954 25 105.949 25C105.945 25 105.94 25 105.935 25C105.93 25 105.926 25 105.921 25C105.916 25 105.911 25 105.907 25C105.902 25 105.897 25 105.892 25C105.888 25 105.883 25 105.878 25C105.873 25 105.869 25 105.864 25C105.859 25 105.854 25 105.85 25C105.845 25 105.84 25 105.835 25C105.831 25 105.826 25 105.821 25C105.816 25 105.812 25 105.807 25C105.802 25 105.797 25 105.793 25C105.788 25 105.783 25 105.778 25C105.774 25 105.769 25 105.764 25C105.759 25 105.755 25 105.75 25C105.745 25 105.74 25 105.736 25C105.731 25 105.726 25 105.721 25C105.717 25 105.712 25 105.707 25C105.702 25 105.698 25 105.693 25C105.688 25 105.683 25 105.679 25C105.674 25 105.669 25 105.664 25C105.66 25 105.655 25 105.65 25C105.645 25 105.641 25 105.636 25C105.631 25 105.626 25 105.622 25C105.617 25 105.612 25 105.607 25C105.603 25 105.598 25 105.593 25C105.588 25 105.584 25 105.579 25C105.574 25 105.569 25 105.565 25C105.56 25 105.555 25 105.55 25C105.546 25 105.541 25 105.536 25C105.531 25 105.527 25 105.522 25C105.517 25 105.512 25 105.508 25C105.503 25 105.498 25 105.493 25C105.489 25 105.484 25 105.479 25C105.474 25 105.469 25 105.465 25C105.46 25 105.455 25 105.45 25C105.446 25 105.441 25 105.436 25C105.431 25 105.427 25 105.422 25C105.417 25 105.412 25 105.408 25C105.403 25 105.398 25 105.393 25C105.389 25 105.384 25 105.379 25C105.374 25 105.37 25 105.365 25C105.36 25 105.355 25 105.351 25C105.346 25 105.341 25 105.336 25C105.332 25 105.327 25 105.322 25C105.317 25 105.313 25 105.308 25C105.303 25 105.298 25 105.294 25C105.289 25 105.284 25 105.279 25C105.275 25 105.27 25 105.265 25C105.26 25 105.256 25 105.251 25C105.246 25 105.241 25 105.237 25C105.232 25 105.227 25 105.222 25C105.217 25 105.213 25 105.208 25C105.203 25 105.198 25 105.194 25C105.189 25 105.184 25 105.179 25C105.175 25 105.17 25 105.165 25C105.16 25 105.156 25 105.151 25C105.146 25 105.141 25 105.137 25C105.132 25 105.127 25 105.122 25C105.118 25 105.113 25 105.108 25C105.103 25 105.099 25 105.094 25C105.089 25 105.084 25 105.08 25C105.075 25 105.07 25 105.065 25C105.061 25 105.056 25 105.051 25C105.046 25 105.042 25 105.037 25C105.032 25 105.027 25 105.023 25C105.018 25 105.013 25 105.008 25C105.003 25 104.999 25 104.994 25C104.989 25 104.984 25 104.98 25C104.975 25 104.97 25 104.965 25C104.961 25 104.956 25 104.951 25C104.946 25 104.942 25 104.937 25C104.932 25 104.927 25 104.923 25C104.918 25 104.913 25 104.908 25C104.904 25 104.899 25 104.894 25C104.889 25 104.885 25 104.88 25C104.875 25 104.87 25 104.866 25C104.861 25 104.856 25 104.851 25C104.846 25 104.842 25 104.837 25C104.832 25 104.827 25 104.823 25C104.818 25 104.813 25 104.808 25C104.804 25 104.799 25 104.794 25C104.789 25 104.785 25 104.78 25C104.775 25 104.77 25 104.766 25C104.761 25 104.756 25 104.751 25C104.747 25 104.742 25 104.737 25C104.732 25 104.728 25 104.723 25C104.718 25 104.713 25 104.708 25C104.704 25 104.699 25 104.694 25C104.689 25 104.685 25 104.68 25C104.675 25 104.67 25 104.666 25C104.661 25 104.656 25 104.651 25C104.647 25 104.642 25 104.637 25C104.632 25 104.628 25 104.623 25C104.618 25 104.613 25 104.609 25C104.604 25 104.599 25 104.594 25C104.59 25 104.585 25 104.58 25C104.575 25 104.57 25 104.566 25C104.561 25 104.556 25 104.551 25C104.547 25 104.542 25 104.537 25C104.532 25 104.528 25 104.523 25C104.518 25 104.513 25 104.509 25C104.504 25 104.499 25 104.494 25C104.49 25 104.485 25 104.48 25C104.475 25 104.47 25 104.466 25C104.461 25 104.456 25 104.451 25C104.447 25 104.442 25 104.437 25C104.432 25 104.428 25 104.423 25C104.418 25 104.413 25 104.409 25C104.404 25 104.399 25 104.394 25C104.39 25 104.385 25 104.38 25C104.375 25 104.37 25 104.366 25C104.361 25 104.356 25 104.351 25C104.347 25 104.342 25 104.337 25C104.332 25 104.328 25 104.323 25C104.318 25 104.313 25 104.309 25C104.304 25 104.299 25 104.294 25C104.29 25 104.285 25 104.28 25C104.275 25 104.27 25 104.266 25C104.261 25 104.256 25 104.251 25C104.247 25 104.242 25 104.237 25C104.232 25 104.228 25 104.223 25C104.218 25 104.213 25 104.209 25C104.204 25 104.199 25 104.194 25C104.189 25 104.185 25 104.18 25C104.175 25 104.17 25 104.166 25C104.161 25 104.156 25 104.151 25C104.147 25 104.142 25 104.137 25C104.132 25 104.128 25 104.123 25C104.118 25 104.113 25 104.108 25C104.104 25 104.099 25 104.094 25C104.089 25 104.085 25 104.08 25C104.075 25 104.07 25 104.066 25C104.061 25 104.056 25 104.051 25C104.047 25 104.042 25 104.037 25C104.032 25 104.027 25 104.023 25C104.018 25 104.013 25 104.008 25C104.004 25 103.999 25 103.994 25C103.989 25 103.985 25 103.98 25C103.975 25 103.97 25 103.966 25C103.961 25 103.956 25 103.951 25C103.946 25 103.942 25 103.937 25C103.932 25 103.927 25 103.923 25C103.918 25 103.913 25 103.908 25C103.904 25 103.899 25 103.894 25C103.889 25 103.884 25 103.88 25C103.875 25 103.87 25 103.865 25C103.861 25 103.856 25 103.851 25C103.846 25 103.842 25 103.837 25C103.832 25 103.827 25 103.823 25C103.818 25 103.813 25 103.808 25C103.803 25 103.799 25 103.794 25C103.789 25 103.784 25 103.78 25C103.775 25 103.77 25 103.765 25C103.761 25 103.756 25 103.751 25C103.746 25 103.741 25 103.737 25C103.732 25 103.727 25 103.722 25C103.718 25 103.713 25 103.708 25C103.703 25 103.699 25 103.694 25C103.689 25 103.684 25 103.679 25V27ZM110.983 27C112.663 27 114.339 26.7158 115.621 25.8497C116.972 24.9374 117.747 23.4743 117.747 21.468H115.747C115.747 22.8937 115.236 23.6966 114.502 24.1923C113.7 24.7342 112.494 25 110.983 25V27ZM117.747 21.468C117.747 20.7977 117.531 19.9041 117.055 19.0907C116.57 18.2603 115.773 17.4445 114.575 17.0795L113.992 18.9925C114.598 19.1775 115.033 19.5937 115.329 20.0998C115.634 20.6229 115.747 21.1703 115.747 21.468H117.747ZM114.691 18.9492C116.505 18.1399 117.285 16.6221 117.285 15.066H115.285C115.285 15.8859 114.922 16.6561 113.876 17.1228L114.691 18.9492ZM117.285 15.066C117.285 13.2436 116.604 11.8181 115.383 10.8776C114.202 9.96771 112.632 9.6 110.983 9.6V11.6C112.371 11.6 113.452 11.9143 114.163 12.4619C114.834 12.9789 115.285 13.7864 115.285 15.066H117.285ZM123.691 13.934C119.634 13.934 117.081 16.9864 117.081 20.588H119.081C119.081 17.9856 120.841 15.934 123.691 15.934V13.934ZM117.081 20.588C117.081 22.3747 117.687 24.0438 118.851 25.2738C120.022 26.5121 121.701 27.242 123.713 27.242V25.242C122.206 25.242 121.068 24.7069 120.303 23.8992C119.531 23.0832 119.081 21.9253 119.081 20.588H117.081ZM123.713 27.242C125.725 27.242 127.408 26.5124 128.584 25.2759C129.754 24.0469 130.367 22.3776 130.367 20.588H128.367C128.367 21.9224 127.913 23.0801 127.136 23.8971C126.365 24.7066 125.221 25.242 123.713 25.242V27.242ZM130.367 20.588C130.367 16.9701 127.733 13.934 123.691 13.934V15.934C126.557 15.934 128.367 18.0019 128.367 20.588H130.367ZM123.713 18.376C124.822 18.376 125.661 19.3575 125.661 20.588H127.661C127.661 18.5625 126.212 16.376 123.713 16.376V18.376ZM125.661 20.588C125.661 21.224 125.469 21.782 125.153 22.1619C124.855 22.519 124.403 22.778 123.713 22.778V24.778C124.981 24.778 126.003 24.267 126.69 23.4416C127.358 22.639 127.661 21.602 127.661 20.588H125.661ZM123.713 22.778C123.023 22.778 122.571 22.519 122.273 22.1619C121.957 21.782 121.765 21.224 121.765 20.588H119.765C119.765 21.602 120.068 22.639 120.736 23.4416C121.423 24.267 122.445 24.778 123.713 24.778V22.778ZM121.765 20.588C121.765 19.9697 121.959 19.4022 122.284 19.0082C122.591 18.6363 123.047 18.376 123.713 18.376V16.376C122.443 16.376 121.425 16.9077 120.742 17.7348C120.077 18.5398 119.765 19.5783 119.765 20.588H121.765ZM135.779 18.828L134.914 19.3303L135.779 20.819L136.644 19.3303L135.779 18.828ZM133.645 15.154L134.51 14.6517L134.221 14.154H133.645V15.154ZM130.433 15.154V14.154H129.433V15.154H130.433ZM130.433 15.242H129.433V15.549L129.605 15.8031L130.433 15.242ZM133.997 20.5L134.818 21.0715L135.21 20.5076L134.825 19.9389L133.997 20.5ZM130.213 25.934L129.392 25.3625L129.213 25.6201V25.934H130.213ZM130.213 26H129.213V27H130.213V26ZM133.425 26V27H133.968L134.264 26.5441L133.425 26ZM135.779 22.37L136.618 21.8259L135.779 20.5321L134.94 21.8259L135.779 22.37ZM138.133 26L137.294 26.5441L137.59 27H138.133V26ZM141.345 26V27H142.345V26H141.345ZM141.345 25.934H142.345V25.6201L142.166 25.3625L141.345 25.934ZM137.561 20.5L136.733 19.9389L136.348 20.5076L136.74 21.0715L137.561 20.5ZM141.125 15.242L141.953 15.8031L142.125 15.549V15.242H141.125ZM141.125 15.154H142.125V14.154H141.125V15.154ZM137.913 15.154V14.154H137.337L137.048 14.6517L137.913 15.154ZM136.644 18.3257L134.51 14.6517L132.78 15.6563L134.914 19.3303L136.644 18.3257ZM133.645 14.154H130.433V16.154H133.645V14.154ZM129.433 15.154V15.242H131.433V15.154H129.433ZM129.605 15.8031L133.169 21.0611L134.825 19.9389L131.261 14.6809L129.605 15.8031ZM133.176 19.9285L129.392 25.3625L131.034 26.5055L134.818 21.0715L133.176 19.9285ZM129.213 25.934V26H131.213V25.934H129.213ZM130.213 27H133.425V25H130.213V27ZM134.264 26.5441L136.618 22.9141L134.94 21.8259L132.586 25.4559L134.264 26.5441ZM134.94 22.9141L137.294 26.5441L138.972 25.4559L136.618 21.8259L134.94 22.9141ZM138.133 27H141.345V25H138.133V27ZM142.345 26V25.934H140.345V26H142.345ZM142.166 25.3625L138.382 19.9285L136.74 21.0715L140.524 26.5055L142.166 25.3625ZM138.389 21.0611L141.953 15.8031L140.297 14.6809L136.733 19.9389L138.389 21.0611ZM142.125 15.242V15.154H140.125V15.242H142.125ZM141.125 14.154H137.913V16.154H141.125V14.154ZM137.048 14.6517L134.914 18.3257L136.644 19.3303L138.778 15.6563L137.048 14.6517Z" fill="black" fill-opacity="0.5"/>
<rect x="13" y="3" width="20" height="20" fill="#6709A2"/>
<path d="M33 23.6866L33 36L0 36L3.93521e-07 3L12.5 3L12.5 23.6866L33 23.6866Z" fill="white"/>
</svg>
